G04 #@! TF.FileFunction,Copper,L1,Top,Signal*
%FSLAX46Y46*%
G04 Gerber Fmt 4.6, Leading zero omitted, Abs format (unit mm)*
G04 Created by KiCad (PCBNEW 4.0.6) date 2017 August 25, Friday 18:10:59*
%MOMM*%
%LPD*%
G01*
G04 APERTURE LIST*
%ADD10C,0.100000*%
%ADD11R,1.727200X1.727200*%
%ADD12O,1.727200X1.727200*%
%ADD13C,1.800000*%
%ADD14R,1.600000X1.600000*%
%ADD15C,1.600000*%
%ADD16R,2.200000X2.200000*%
%ADD17O,2.200000X2.200000*%
%ADD18R,1.700000X1.700000*%
%ADD19O,1.700000X1.700000*%
%ADD20O,1.600000X1.600000*%
%ADD21R,1.800000X1.800000*%
%ADD22O,1.800000X1.800000*%
%ADD23C,0.700000*%
%ADD24C,0.600000*%
%ADD25C,0.400000*%
%ADD26C,0.250000*%
G04 APERTURE END LIST*
D10*
D11*
X196596000Y-111252000D03*
D12*
X196596000Y-113792000D03*
X194056000Y-111252000D03*
X194056000Y-113792000D03*
X191516000Y-111252000D03*
X191516000Y-113792000D03*
X188976000Y-111252000D03*
X188976000Y-113792000D03*
X186436000Y-111252000D03*
X186436000Y-113792000D03*
X183896000Y-111252000D03*
X183896000Y-113792000D03*
X181356000Y-111252000D03*
X181356000Y-113792000D03*
X178816000Y-111252000D03*
X178816000Y-113792000D03*
D13*
X168656000Y-134288000D03*
X168656000Y-131188000D03*
X168656000Y-142588000D03*
D14*
X168656000Y-124968000D03*
D15*
X170656000Y-124968000D03*
D14*
X168656000Y-117348000D03*
D15*
X170656000Y-117348000D03*
X174244000Y-120904000D03*
X179244000Y-120904000D03*
X174244000Y-126492000D03*
X179244000Y-126492000D03*
D16*
X195072000Y-121412000D03*
D17*
X182372000Y-121412000D03*
D16*
X195072000Y-127000000D03*
D17*
X182372000Y-127000000D03*
D18*
X156972000Y-142240000D03*
D19*
X156972000Y-139700000D03*
X156972000Y-137160000D03*
X156972000Y-134620000D03*
X156972000Y-132080000D03*
X156972000Y-129540000D03*
X156972000Y-127000000D03*
X156972000Y-124460000D03*
X156972000Y-121920000D03*
X156972000Y-119380000D03*
X156972000Y-116840000D03*
X156972000Y-114300000D03*
X156972000Y-111760000D03*
X156972000Y-109220000D03*
D15*
X164084000Y-118872000D03*
D20*
X164084000Y-108712000D03*
D15*
X164084000Y-131572000D03*
D20*
X164084000Y-121412000D03*
D21*
X199136000Y-121412000D03*
D22*
X199136000Y-123952000D03*
X199136000Y-126492000D03*
D13*
X178308000Y-134288000D03*
X178308000Y-131188000D03*
X178308000Y-142588000D03*
X187960000Y-134288000D03*
X187960000Y-131188000D03*
X187960000Y-142588000D03*
X197612000Y-134288000D03*
X197612000Y-131188000D03*
X197612000Y-142588000D03*
D23*
X174498000Y-122936000D03*
X171577000Y-122428000D03*
X197231000Y-123825000D03*
X194564000Y-123825000D03*
X162052000Y-117856000D03*
X162052000Y-123190000D03*
X183134000Y-124714000D03*
D24*
X198628000Y-117856000D03*
X169418000Y-108331000D03*
X165989000Y-136906000D03*
X163703000Y-139192000D03*
X162306000Y-136398000D03*
X163957000Y-134747000D03*
X167513000Y-129413000D03*
X158369000Y-130937000D03*
X167513000Y-128397000D03*
X161798000Y-128270000D03*
D25*
X168656000Y-122428000D02*
X171577000Y-122428000D01*
X176530000Y-120904000D02*
X179244000Y-120904000D01*
X174498000Y-122936000D02*
X176530000Y-120904000D01*
X164084000Y-118872000D02*
X165100000Y-118872000D01*
X168656000Y-122428000D02*
X168656000Y-124968000D01*
X165100000Y-118872000D02*
X168656000Y-122428000D01*
X199136000Y-121412000D02*
X199136000Y-121920000D01*
X199136000Y-121920000D02*
X197231000Y-123825000D01*
X194564000Y-123825000D02*
X181737000Y-123825000D01*
X181737000Y-123825000D02*
X179244000Y-121332000D01*
X179244000Y-121332000D02*
X179244000Y-120904000D01*
X164084000Y-118872000D02*
X159004000Y-118872000D01*
X159004000Y-118872000D02*
X156972000Y-116840000D01*
X161036000Y-114300000D02*
X156972000Y-114300000D01*
X161163000Y-116840000D02*
X159512000Y-116840000D01*
X159512000Y-116840000D02*
X156972000Y-114300000D01*
X164084000Y-131572000D02*
X164084000Y-125222000D01*
X162052000Y-117856000D02*
X161163000Y-116840000D01*
X164084000Y-125222000D02*
X162052000Y-123190000D01*
X161036000Y-114300000D02*
X165608000Y-114300000D01*
X165608000Y-114300000D02*
X168656000Y-117348000D01*
X156972000Y-111760000D02*
X170180000Y-111760000D01*
X172720000Y-124968000D02*
X174244000Y-126492000D01*
X172720000Y-114300000D02*
X172720000Y-124968000D01*
X170180000Y-111760000D02*
X172720000Y-114300000D01*
X183134000Y-124714000D02*
X175514000Y-124714000D01*
X175514000Y-124714000D02*
X174244000Y-125984000D01*
X174244000Y-125984000D02*
X174244000Y-126492000D01*
D26*
X164084000Y-108712000D02*
X165354000Y-108712000D01*
X198628000Y-110490000D02*
X198628000Y-117856000D01*
X195580000Y-107442000D02*
X198628000Y-110490000D01*
X166624000Y-107442000D02*
X195580000Y-107442000D01*
X165354000Y-108712000D02*
X166624000Y-107442000D01*
X182372000Y-127000000D02*
X181102000Y-128270000D01*
X164084000Y-123952000D02*
X164084000Y-122047000D01*
X168402000Y-128270000D02*
X164084000Y-123952000D01*
X181102000Y-128270000D02*
X168402000Y-128270000D01*
X178816000Y-111252000D02*
X171196000Y-111252000D01*
X155448000Y-120396000D02*
X156972000Y-121920000D01*
X155448000Y-107950000D02*
X155448000Y-120396000D01*
X155956000Y-107442000D02*
X155448000Y-107950000D01*
X160782000Y-107442000D02*
X155956000Y-107442000D01*
X163322000Y-109982000D02*
X160782000Y-107442000D01*
X169926000Y-109982000D02*
X163322000Y-109982000D01*
X171196000Y-111252000D02*
X169926000Y-109982000D01*
X178816000Y-111252000D02*
X178816000Y-113792000D01*
X169418000Y-108331000D02*
X171196000Y-109982000D01*
X171196000Y-109982000D02*
X179832000Y-109982000D01*
X179832000Y-109982000D02*
X181356000Y-111252000D01*
X181356000Y-111252000D02*
X181356000Y-113792000D01*
X156972000Y-139700000D02*
X163195000Y-139700000D01*
X165989000Y-136906000D02*
X168607000Y-134288000D01*
X163195000Y-139700000D02*
X163703000Y-139192000D01*
X168607000Y-134288000D02*
X168656000Y-134288000D01*
X167972000Y-134288000D02*
X168656000Y-134288000D01*
X156972000Y-142240000D02*
X168308000Y-142240000D01*
X168308000Y-142240000D02*
X168656000Y-142588000D01*
X168308000Y-142240000D02*
X168656000Y-142588000D01*
X168308000Y-142240000D02*
X168656000Y-142588000D01*
X156972000Y-134620000D02*
X157607000Y-134620000D01*
X157607000Y-134620000D02*
X159385000Y-136398000D01*
X159385000Y-136398000D02*
X162306000Y-136398000D01*
X163957000Y-134747000D02*
X165989000Y-132715000D01*
X165989000Y-132715000D02*
X176735000Y-132715000D01*
X176735000Y-132715000D02*
X178308000Y-134288000D01*
X156972000Y-137160000D02*
X163195000Y-137160000D01*
X177071000Y-141351000D02*
X178308000Y-142588000D01*
X167386000Y-141351000D02*
X177071000Y-141351000D01*
X163195000Y-137160000D02*
X167386000Y-141351000D01*
X156972000Y-129540000D02*
X158369000Y-130937000D01*
X183388000Y-129413000D02*
X187960000Y-133985000D01*
X167513000Y-129413000D02*
X183388000Y-129413000D01*
X187960000Y-133985000D02*
X187960000Y-134288000D01*
X187120000Y-134288000D02*
X187960000Y-134288000D01*
X156972000Y-132080000D02*
X159132398Y-132080000D01*
X186088000Y-140716000D02*
X187960000Y-142588000D01*
X167768398Y-140716000D02*
X186088000Y-140716000D01*
X159132398Y-132080000D02*
X167768398Y-140716000D01*
X156972000Y-124460000D02*
X159131000Y-126619000D01*
X192102000Y-128778000D02*
X197612000Y-134288000D01*
X167894000Y-128778000D02*
X192102000Y-128778000D01*
X167513000Y-128397000D02*
X167894000Y-128778000D01*
X160147000Y-126619000D02*
X161798000Y-128270000D01*
X159131000Y-126619000D02*
X160147000Y-126619000D01*
X197612000Y-134288000D02*
X197407000Y-134288000D01*
X156972000Y-124460000D02*
X156972000Y-124714000D01*
X156972000Y-127000000D02*
X156972000Y-127254000D01*
X156972000Y-127254000D02*
X159766000Y-130048000D01*
X159766000Y-130048000D02*
X159766000Y-131826000D01*
X159766000Y-131826000D02*
X168148000Y-140208000D01*
X168148000Y-140208000D02*
X195232000Y-140208000D01*
X195232000Y-140208000D02*
X197612000Y-142588000D01*
D25*
X186436000Y-113792000D02*
X186436000Y-117348000D01*
X186436000Y-117348000D02*
X182372000Y-121412000D01*
X186436000Y-111252000D02*
X186436000Y-113792000D01*
X195072000Y-127000000D02*
X195072000Y-124714000D01*
X197612000Y-114808000D02*
X196596000Y-113792000D01*
X197612000Y-122174000D02*
X197612000Y-114808000D01*
X195072000Y-124714000D02*
X197612000Y-122174000D01*
X196596000Y-111252000D02*
X196596000Y-113792000D01*
M02*
