%TF.GenerationSoftware,KiCad,Pcbnew,4.0.6*%
%TF.CreationDate,2017-08-26T10:37:18+02:00*%
%TF.ProjectId,EW Power Breakout,455720506F77657220427265616B6F75,1.0*%
%TF.FileFunction,Legend,Bot*%
%FSLAX46Y46*%
G04 Gerber Fmt 4.6, Leading zero omitted, Abs format (unit mm)*
G04 Created by KiCad (PCBNEW 4.0.6) date 2017 August 26, Saturday 10:37:18*
%MOMM*%
%LPD*%
G01*
G04 APERTURE LIST*
%ADD10C,0.100000*%
%ADD11C,0.125000*%
G04 APERTURE END LIST*
D10*
D11*
X161325714Y-130230858D02*
X161325714Y-130611810D01*
X161016190Y-131373715D02*
X161373333Y-131373715D01*
X161444762Y-131349905D01*
X161492381Y-131302286D01*
X161516190Y-131230858D01*
X161516190Y-131183239D01*
X161516190Y-131683238D02*
X161492381Y-131635619D01*
X161468571Y-131611810D01*
X161420952Y-131588000D01*
X161278095Y-131588000D01*
X161230476Y-131611810D01*
X161206667Y-131635619D01*
X161182857Y-131683238D01*
X161182857Y-131754667D01*
X161206667Y-131802286D01*
X161230476Y-131826095D01*
X161278095Y-131849905D01*
X161420952Y-131849905D01*
X161468571Y-131826095D01*
X161492381Y-131802286D01*
X161516190Y-131754667D01*
X161516190Y-131683238D01*
X161516190Y-132064191D02*
X161016190Y-132064191D01*
X161516190Y-132278476D02*
X161254286Y-132278476D01*
X161206667Y-132254667D01*
X161182857Y-132207048D01*
X161182857Y-132135619D01*
X161206667Y-132088000D01*
X161230476Y-132064191D01*
X161182857Y-132516572D02*
X161516190Y-132516572D01*
X161230476Y-132516572D02*
X161206667Y-132540381D01*
X161182857Y-132588000D01*
X161182857Y-132659429D01*
X161206667Y-132707048D01*
X161254286Y-132730857D01*
X161516190Y-132730857D01*
X161468571Y-133635619D02*
X161492381Y-133611809D01*
X161516190Y-133540381D01*
X161516190Y-133492762D01*
X161492381Y-133421333D01*
X161444762Y-133373714D01*
X161397143Y-133349905D01*
X161301905Y-133326095D01*
X161230476Y-133326095D01*
X161135238Y-133349905D01*
X161087619Y-133373714D01*
X161040000Y-133421333D01*
X161016190Y-133492762D01*
X161016190Y-133540381D01*
X161040000Y-133611809D01*
X161063810Y-133635619D01*
X161516190Y-134064190D02*
X161254286Y-134064190D01*
X161206667Y-134040381D01*
X161182857Y-133992762D01*
X161182857Y-133897524D01*
X161206667Y-133849905D01*
X161492381Y-134064190D02*
X161516190Y-134016571D01*
X161516190Y-133897524D01*
X161492381Y-133849905D01*
X161444762Y-133826095D01*
X161397143Y-133826095D01*
X161349524Y-133849905D01*
X161325714Y-133897524D01*
X161325714Y-134016571D01*
X161301905Y-134064190D01*
X161182857Y-134516571D02*
X161587619Y-134516571D01*
X161635238Y-134492762D01*
X161659048Y-134468952D01*
X161682857Y-134421333D01*
X161682857Y-134349905D01*
X161659048Y-134302286D01*
X161492381Y-134516571D02*
X161516190Y-134468952D01*
X161516190Y-134373714D01*
X161492381Y-134326095D01*
X161468571Y-134302286D01*
X161420952Y-134278476D01*
X161278095Y-134278476D01*
X161230476Y-134302286D01*
X161206667Y-134326095D01*
X161182857Y-134373714D01*
X161182857Y-134468952D01*
X161206667Y-134516571D01*
X161492381Y-134945143D02*
X161516190Y-134897524D01*
X161516190Y-134802286D01*
X161492381Y-134754667D01*
X161444762Y-134730857D01*
X161254286Y-134730857D01*
X161206667Y-134754667D01*
X161182857Y-134802286D01*
X161182857Y-134897524D01*
X161206667Y-134945143D01*
X161254286Y-134968952D01*
X161301905Y-134968952D01*
X161349524Y-134730857D01*
X159619190Y-117260182D02*
X159714429Y-117248277D01*
X159619190Y-117450658D02*
X159714429Y-117438753D01*
X160119190Y-117602444D02*
X159619190Y-117664944D01*
X160119190Y-118221491D02*
X159619190Y-118283991D01*
X160119190Y-118435776D02*
X159857286Y-118468514D01*
X159809667Y-118450658D01*
X159785857Y-118406015D01*
X159785857Y-118334586D01*
X159809667Y-118283991D01*
X159833476Y-118257206D01*
X160119190Y-118888157D02*
X159857286Y-118920895D01*
X159809667Y-118903039D01*
X159785857Y-118858396D01*
X159785857Y-118763158D01*
X159809667Y-118712563D01*
X160095381Y-118891133D02*
X160119190Y-118840538D01*
X160119190Y-118721491D01*
X160095381Y-118676848D01*
X160047762Y-118658991D01*
X160000143Y-118664943D01*
X159952524Y-118694706D01*
X159928714Y-118745301D01*
X159928714Y-118864348D01*
X159904905Y-118914943D01*
X159785857Y-119120301D02*
X160119190Y-119197681D01*
X159785857Y-119358396D01*
X160095381Y-119700657D02*
X160119190Y-119650062D01*
X160119190Y-119554824D01*
X160095381Y-119510181D01*
X160047762Y-119492324D01*
X159857286Y-119516133D01*
X159809667Y-119545896D01*
X159785857Y-119596491D01*
X159785857Y-119691729D01*
X159809667Y-119736372D01*
X159857286Y-119754228D01*
X159904905Y-119748276D01*
X159952524Y-119504229D01*
X159785857Y-120358395D02*
X160119190Y-120316728D01*
X159833476Y-120352443D02*
X159809667Y-120379228D01*
X159785857Y-120429823D01*
X159785857Y-120501252D01*
X159809667Y-120545895D01*
X159857286Y-120563751D01*
X160119190Y-120531013D01*
X160119190Y-120840537D02*
X160095381Y-120795894D01*
X160071571Y-120775062D01*
X160023952Y-120757204D01*
X159881095Y-120775061D01*
X159833476Y-120804824D01*
X159809667Y-120831609D01*
X159785857Y-120882204D01*
X159785857Y-120953633D01*
X159809667Y-120998276D01*
X159833476Y-121019109D01*
X159881095Y-121036966D01*
X160023952Y-121019109D01*
X160071571Y-120989347D01*
X160095381Y-120962561D01*
X160119190Y-120911966D01*
X160119190Y-120840537D01*
X159785857Y-121191728D02*
X159785857Y-121382204D01*
X159619190Y-121283990D02*
X160047762Y-121230419D01*
X160095381Y-121248275D01*
X160119190Y-121292918D01*
X160119190Y-121340537D01*
X160119190Y-121507204D02*
X159619190Y-121569704D01*
X160119190Y-121721489D02*
X159857286Y-121754227D01*
X159809667Y-121736371D01*
X159785857Y-121691728D01*
X159785857Y-121620299D01*
X159809667Y-121569704D01*
X159833476Y-121542919D01*
X160119190Y-121959585D02*
X159785857Y-122001252D01*
X159619190Y-122022085D02*
X159643000Y-121995299D01*
X159666810Y-122016133D01*
X159643000Y-122042918D01*
X159619190Y-122022085D01*
X159666810Y-122016133D01*
X159785857Y-122239347D02*
X160119190Y-122197680D01*
X159833476Y-122233395D02*
X159809667Y-122260180D01*
X159785857Y-122310775D01*
X159785857Y-122382204D01*
X159809667Y-122426847D01*
X159857286Y-122444703D01*
X160119190Y-122411965D01*
X159785857Y-122906013D02*
X160190619Y-122855418D01*
X160238238Y-122825656D01*
X160262048Y-122798870D01*
X160285857Y-122748275D01*
X160285857Y-122676847D01*
X160262048Y-122632204D01*
X160095381Y-122867322D02*
X160119190Y-122816727D01*
X160119190Y-122721489D01*
X160095381Y-122676846D01*
X160071571Y-122656014D01*
X160023952Y-122638156D01*
X159881095Y-122656013D01*
X159833476Y-122685776D01*
X159809667Y-122712561D01*
X159785857Y-122763156D01*
X159785857Y-122858394D01*
X159809667Y-122903037D01*
X159785857Y-123453632D02*
X159785857Y-123644108D01*
X159619190Y-123545894D02*
X160047762Y-123492323D01*
X160095381Y-123510179D01*
X160119190Y-123554822D01*
X160119190Y-123602441D01*
X160119190Y-123840536D02*
X160095381Y-123795893D01*
X160071571Y-123775061D01*
X160023952Y-123757203D01*
X159881095Y-123775060D01*
X159833476Y-123804823D01*
X159809667Y-123831608D01*
X159785857Y-123882203D01*
X159785857Y-123953632D01*
X159809667Y-123998275D01*
X159833476Y-124019108D01*
X159881095Y-124036965D01*
X160023952Y-124019108D01*
X160071571Y-123989346D01*
X160095381Y-123962560D01*
X160119190Y-123911965D01*
X160119190Y-123840536D01*
X160095381Y-124581607D02*
X160119190Y-124626250D01*
X160119190Y-124721488D01*
X160095381Y-124772083D01*
X160047762Y-124801846D01*
X160023952Y-124804822D01*
X159976333Y-124786964D01*
X159952524Y-124742322D01*
X159952524Y-124670894D01*
X159928714Y-124626251D01*
X159881095Y-124608393D01*
X159857286Y-124611369D01*
X159809667Y-124641132D01*
X159785857Y-124691727D01*
X159785857Y-124763155D01*
X159809667Y-124807798D01*
X160119190Y-125221488D02*
X159857286Y-125254226D01*
X159809667Y-125236370D01*
X159785857Y-125191727D01*
X159785857Y-125096489D01*
X159809667Y-125045894D01*
X160095381Y-125224464D02*
X160119190Y-125173869D01*
X160119190Y-125054822D01*
X160095381Y-125010179D01*
X160047762Y-124992322D01*
X160000143Y-124998274D01*
X159952524Y-125028037D01*
X159928714Y-125078632D01*
X159928714Y-125197679D01*
X159904905Y-125248274D01*
X159785857Y-125453632D02*
X160119190Y-125531012D01*
X159785857Y-125691727D02*
X160119190Y-125531012D01*
X160238238Y-125468512D01*
X160262048Y-125441727D01*
X160285857Y-125391132D01*
X160119190Y-126435773D02*
X159857286Y-126468511D01*
X159809667Y-126450655D01*
X159785857Y-126406012D01*
X159785857Y-126310774D01*
X159809667Y-126260179D01*
X160095381Y-126438749D02*
X160119190Y-126388154D01*
X160119190Y-126269107D01*
X160095381Y-126224464D01*
X160047762Y-126206607D01*
X160000143Y-126212559D01*
X159952524Y-126242322D01*
X159928714Y-126292917D01*
X159928714Y-126411964D01*
X159904905Y-126462559D01*
X159785857Y-126715536D02*
X160119190Y-126673869D01*
X159833476Y-126709584D02*
X159809667Y-126736369D01*
X159785857Y-126786964D01*
X159785857Y-126858393D01*
X159809667Y-126903036D01*
X159857286Y-126920892D01*
X160119190Y-126888154D01*
X160119190Y-127340535D02*
X159619190Y-127403035D01*
X160095381Y-127343511D02*
X160119190Y-127292916D01*
X160119190Y-127197678D01*
X160095381Y-127153035D01*
X160071571Y-127132203D01*
X160023952Y-127114345D01*
X159881095Y-127132202D01*
X159833476Y-127161965D01*
X159809667Y-127188750D01*
X159785857Y-127239345D01*
X159785857Y-127334583D01*
X159809667Y-127379226D01*
X160119190Y-127959583D02*
X159619190Y-128022083D01*
X159619190Y-128283987D02*
X159714429Y-128224463D01*
X160119190Y-128435773D02*
X159785857Y-128477440D01*
X159833476Y-128471488D02*
X159809667Y-128498273D01*
X159785857Y-128548868D01*
X159785857Y-128620297D01*
X159809667Y-128664940D01*
X159857286Y-128682796D01*
X160119190Y-128650058D01*
X159857286Y-128682796D02*
X159809667Y-128712559D01*
X159785857Y-128763154D01*
X159785857Y-128834582D01*
X159809667Y-128879226D01*
X159857286Y-128897082D01*
X160119190Y-128864344D01*
X160095381Y-129462558D02*
X160119190Y-129507201D01*
X160119190Y-129602439D01*
X160095381Y-129653034D01*
X160047762Y-129682797D01*
X160023952Y-129685773D01*
X159976333Y-129667915D01*
X159952524Y-129623273D01*
X159952524Y-129551845D01*
X159928714Y-129507202D01*
X159881095Y-129489344D01*
X159857286Y-129492320D01*
X159809667Y-129522083D01*
X159785857Y-129572678D01*
X159785857Y-129644106D01*
X159809667Y-129688749D01*
X160119190Y-130102439D02*
X159857286Y-130135177D01*
X159809667Y-130117321D01*
X159785857Y-130072678D01*
X159785857Y-129977440D01*
X159809667Y-129926845D01*
X160095381Y-130105415D02*
X160119190Y-130054820D01*
X160119190Y-129935773D01*
X160095381Y-129891130D01*
X160047762Y-129873273D01*
X160000143Y-129879225D01*
X159952524Y-129908988D01*
X159928714Y-129959583D01*
X159928714Y-130078630D01*
X159904905Y-130129225D01*
X159785857Y-130334583D02*
X160119190Y-130411963D01*
X159785857Y-130572678D02*
X160119190Y-130411963D01*
X160238238Y-130349463D01*
X160262048Y-130322678D01*
X160285857Y-130272083D01*
X160119190Y-130721487D02*
X159785857Y-130763154D01*
X159619190Y-130783987D02*
X159643000Y-130757201D01*
X159666810Y-130778035D01*
X159643000Y-130804820D01*
X159619190Y-130783987D01*
X159666810Y-130778035D01*
X159785857Y-131001249D02*
X160119190Y-130959582D01*
X159833476Y-130995297D02*
X159809667Y-131022082D01*
X159785857Y-131072677D01*
X159785857Y-131144106D01*
X159809667Y-131188749D01*
X159857286Y-131206605D01*
X160119190Y-131173867D01*
X159785857Y-131667915D02*
X160190619Y-131617320D01*
X160238238Y-131587558D01*
X160262048Y-131560772D01*
X160285857Y-131510177D01*
X160285857Y-131438749D01*
X160262048Y-131394106D01*
X160095381Y-131629224D02*
X160119190Y-131578629D01*
X160119190Y-131483391D01*
X160095381Y-131438748D01*
X160071571Y-131417916D01*
X160023952Y-131400058D01*
X159881095Y-131417915D01*
X159833476Y-131447678D01*
X159809667Y-131474463D01*
X159785857Y-131525058D01*
X159785857Y-131620296D01*
X159809667Y-131664939D01*
X160119190Y-132245296D02*
X159785857Y-132286963D01*
X159619190Y-132307796D02*
X159643000Y-132281010D01*
X159666810Y-132301844D01*
X159643000Y-132328629D01*
X159619190Y-132307796D01*
X159666810Y-132301844D01*
X159785857Y-132453629D02*
X159785857Y-132644105D01*
X159619190Y-132545891D02*
X160047762Y-132492320D01*
X160095381Y-132510176D01*
X160119190Y-132554819D01*
X160119190Y-132602438D01*
X159619190Y-132807795D02*
X159714429Y-132795890D01*
X159619190Y-132998271D02*
X159714429Y-132986366D01*
M02*
