G04 #@! TF.FileFunction,Legend,Top*
%FSLAX46Y46*%
G04 Gerber Fmt 4.6, Leading zero omitted, Abs format (unit mm)*
G04 Created by KiCad (PCBNEW 4.0.6) date 2017 August 25, Friday 18:10:59*
%MOMM*%
%LPD*%
G01*
G04 APERTURE LIST*
%ADD10C,0.100000*%
%ADD11C,0.125000*%
%ADD12C,0.187500*%
%ADD13C,0.120000*%
%ADD14C,0.150000*%
G04 APERTURE END LIST*
D10*
D11*
X167497715Y-108190429D02*
X167747715Y-108190429D01*
X167854858Y-108583286D02*
X167497715Y-108583286D01*
X167497715Y-107833286D01*
X167854858Y-107833286D01*
X168497715Y-108083286D02*
X168497715Y-108583286D01*
X168176286Y-108083286D02*
X168176286Y-108476143D01*
X168212001Y-108547571D01*
X168283429Y-108583286D01*
X168390572Y-108583286D01*
X168462001Y-108547571D01*
X168497715Y-108511857D01*
X168854857Y-108583286D02*
X168854857Y-108083286D01*
X168854857Y-108226143D02*
X168890572Y-108154714D01*
X168926286Y-108119000D01*
X168997715Y-108083286D01*
X169069143Y-108083286D01*
X169426286Y-108583286D02*
X169354858Y-108547571D01*
X169319143Y-108511857D01*
X169283429Y-108440429D01*
X169283429Y-108226143D01*
X169319143Y-108154714D01*
X169354858Y-108119000D01*
X169426286Y-108083286D01*
X169533429Y-108083286D01*
X169604858Y-108119000D01*
X169640572Y-108154714D01*
X169676286Y-108226143D01*
X169676286Y-108440429D01*
X169640572Y-108511857D01*
X169604858Y-108547571D01*
X169533429Y-108583286D01*
X169426286Y-108583286D01*
X169997714Y-108583286D02*
X169997714Y-108083286D01*
X169997714Y-108226143D02*
X170033429Y-108154714D01*
X170069143Y-108119000D01*
X170140572Y-108083286D01*
X170212000Y-108083286D01*
X170783429Y-108583286D02*
X170783429Y-108190429D01*
X170747715Y-108119000D01*
X170676286Y-108083286D01*
X170533429Y-108083286D01*
X170462000Y-108119000D01*
X170783429Y-108547571D02*
X170712000Y-108583286D01*
X170533429Y-108583286D01*
X170462000Y-108547571D01*
X170426286Y-108476143D01*
X170426286Y-108404714D01*
X170462000Y-108333286D01*
X170533429Y-108297571D01*
X170712000Y-108297571D01*
X170783429Y-108261857D01*
X171462000Y-108547571D02*
X171390571Y-108583286D01*
X171247714Y-108583286D01*
X171176286Y-108547571D01*
X171140571Y-108511857D01*
X171104857Y-108440429D01*
X171104857Y-108226143D01*
X171140571Y-108154714D01*
X171176286Y-108119000D01*
X171247714Y-108083286D01*
X171390571Y-108083286D01*
X171462000Y-108119000D01*
X171783428Y-108583286D02*
X171783428Y-107833286D01*
X171854857Y-108297571D02*
X172069143Y-108583286D01*
X172069143Y-108083286D02*
X171783428Y-108369000D01*
X167069144Y-109083286D02*
X167247715Y-109833286D01*
X167390572Y-109297571D01*
X167533430Y-109833286D01*
X167712001Y-109083286D01*
X168104858Y-109833286D02*
X168033430Y-109797571D01*
X167997715Y-109761857D01*
X167962001Y-109690429D01*
X167962001Y-109476143D01*
X167997715Y-109404714D01*
X168033430Y-109369000D01*
X168104858Y-109333286D01*
X168212001Y-109333286D01*
X168283430Y-109369000D01*
X168319144Y-109404714D01*
X168354858Y-109476143D01*
X168354858Y-109690429D01*
X168319144Y-109761857D01*
X168283430Y-109797571D01*
X168212001Y-109833286D01*
X168104858Y-109833286D01*
X168676286Y-109833286D02*
X168676286Y-109333286D01*
X168676286Y-109476143D02*
X168712001Y-109404714D01*
X168747715Y-109369000D01*
X168819144Y-109333286D01*
X168890572Y-109333286D01*
X169140572Y-109833286D02*
X169140572Y-109083286D01*
X169212001Y-109547571D02*
X169426287Y-109833286D01*
X169426287Y-109333286D02*
X169140572Y-109619000D01*
X169712001Y-109797571D02*
X169783430Y-109833286D01*
X169926287Y-109833286D01*
X169997715Y-109797571D01*
X170033430Y-109726143D01*
X170033430Y-109690429D01*
X169997715Y-109619000D01*
X169926287Y-109583286D01*
X169819144Y-109583286D01*
X169747715Y-109547571D01*
X169712001Y-109476143D01*
X169712001Y-109440429D01*
X169747715Y-109369000D01*
X169819144Y-109333286D01*
X169926287Y-109333286D01*
X169997715Y-109369000D01*
X170354858Y-109833286D02*
X170354858Y-109083286D01*
X170676287Y-109833286D02*
X170676287Y-109440429D01*
X170640573Y-109369000D01*
X170569144Y-109333286D01*
X170462001Y-109333286D01*
X170390573Y-109369000D01*
X170354858Y-109404714D01*
X171140572Y-109833286D02*
X171069144Y-109797571D01*
X171033429Y-109761857D01*
X170997715Y-109690429D01*
X170997715Y-109476143D01*
X171033429Y-109404714D01*
X171069144Y-109369000D01*
X171140572Y-109333286D01*
X171247715Y-109333286D01*
X171319144Y-109369000D01*
X171354858Y-109404714D01*
X171390572Y-109476143D01*
X171390572Y-109690429D01*
X171354858Y-109761857D01*
X171319144Y-109797571D01*
X171247715Y-109833286D01*
X171140572Y-109833286D01*
X171712000Y-109333286D02*
X171712000Y-110083286D01*
X171712000Y-109369000D02*
X171783429Y-109333286D01*
X171926286Y-109333286D01*
X171997715Y-109369000D01*
X172033429Y-109404714D01*
X172069143Y-109476143D01*
X172069143Y-109690429D01*
X172033429Y-109761857D01*
X171997715Y-109797571D01*
X171926286Y-109833286D01*
X171783429Y-109833286D01*
X171712000Y-109797571D01*
X169069143Y-111083286D02*
X169069143Y-110333286D01*
X169354858Y-110333286D01*
X169426286Y-110369000D01*
X169462001Y-110404714D01*
X169497715Y-110476143D01*
X169497715Y-110583286D01*
X169462001Y-110654714D01*
X169426286Y-110690429D01*
X169354858Y-110726143D01*
X169069143Y-110726143D01*
X169926286Y-111083286D02*
X169854858Y-111047571D01*
X169819143Y-111011857D01*
X169783429Y-110940429D01*
X169783429Y-110726143D01*
X169819143Y-110654714D01*
X169854858Y-110619000D01*
X169926286Y-110583286D01*
X170033429Y-110583286D01*
X170104858Y-110619000D01*
X170140572Y-110654714D01*
X170176286Y-110726143D01*
X170176286Y-110940429D01*
X170140572Y-111011857D01*
X170104858Y-111047571D01*
X170033429Y-111083286D01*
X169926286Y-111083286D01*
X170426286Y-110583286D02*
X170569143Y-111083286D01*
X170712000Y-110726143D01*
X170854857Y-111083286D01*
X170997714Y-110583286D01*
X171569143Y-111047571D02*
X171497714Y-111083286D01*
X171354857Y-111083286D01*
X171283428Y-111047571D01*
X171247714Y-110976143D01*
X171247714Y-110690429D01*
X171283428Y-110619000D01*
X171354857Y-110583286D01*
X171497714Y-110583286D01*
X171569143Y-110619000D01*
X171604857Y-110690429D01*
X171604857Y-110761857D01*
X171247714Y-110833286D01*
X171926285Y-111083286D02*
X171926285Y-110583286D01*
X171926285Y-110726143D02*
X171962000Y-110654714D01*
X171997714Y-110619000D01*
X172069143Y-110583286D01*
X172140571Y-110583286D01*
X167712001Y-111940429D02*
X167819144Y-111976143D01*
X167854859Y-112011857D01*
X167890573Y-112083286D01*
X167890573Y-112190429D01*
X167854859Y-112261857D01*
X167819144Y-112297571D01*
X167747716Y-112333286D01*
X167462001Y-112333286D01*
X167462001Y-111583286D01*
X167712001Y-111583286D01*
X167783430Y-111619000D01*
X167819144Y-111654714D01*
X167854859Y-111726143D01*
X167854859Y-111797571D01*
X167819144Y-111869000D01*
X167783430Y-111904714D01*
X167712001Y-111940429D01*
X167462001Y-111940429D01*
X168212001Y-112333286D02*
X168212001Y-111833286D01*
X168212001Y-111976143D02*
X168247716Y-111904714D01*
X168283430Y-111869000D01*
X168354859Y-111833286D01*
X168426287Y-111833286D01*
X168962002Y-112297571D02*
X168890573Y-112333286D01*
X168747716Y-112333286D01*
X168676287Y-112297571D01*
X168640573Y-112226143D01*
X168640573Y-111940429D01*
X168676287Y-111869000D01*
X168747716Y-111833286D01*
X168890573Y-111833286D01*
X168962002Y-111869000D01*
X168997716Y-111940429D01*
X168997716Y-112011857D01*
X168640573Y-112083286D01*
X169640573Y-112333286D02*
X169640573Y-111940429D01*
X169604859Y-111869000D01*
X169533430Y-111833286D01*
X169390573Y-111833286D01*
X169319144Y-111869000D01*
X169640573Y-112297571D02*
X169569144Y-112333286D01*
X169390573Y-112333286D01*
X169319144Y-112297571D01*
X169283430Y-112226143D01*
X169283430Y-112154714D01*
X169319144Y-112083286D01*
X169390573Y-112047571D01*
X169569144Y-112047571D01*
X169640573Y-112011857D01*
X169997715Y-112333286D02*
X169997715Y-111583286D01*
X170069144Y-112047571D02*
X170283430Y-112333286D01*
X170283430Y-111833286D02*
X169997715Y-112119000D01*
X170712001Y-112333286D02*
X170640573Y-112297571D01*
X170604858Y-112261857D01*
X170569144Y-112190429D01*
X170569144Y-111976143D01*
X170604858Y-111904714D01*
X170640573Y-111869000D01*
X170712001Y-111833286D01*
X170819144Y-111833286D01*
X170890573Y-111869000D01*
X170926287Y-111904714D01*
X170962001Y-111976143D01*
X170962001Y-112190429D01*
X170926287Y-112261857D01*
X170890573Y-112297571D01*
X170819144Y-112333286D01*
X170712001Y-112333286D01*
X171604858Y-111833286D02*
X171604858Y-112333286D01*
X171283429Y-111833286D02*
X171283429Y-112226143D01*
X171319144Y-112297571D01*
X171390572Y-112333286D01*
X171497715Y-112333286D01*
X171569144Y-112297571D01*
X171604858Y-112261857D01*
X171854858Y-111833286D02*
X172140572Y-111833286D01*
X171962000Y-111583286D02*
X171962000Y-112226143D01*
X171997715Y-112297571D01*
X172069143Y-112333286D01*
X172140572Y-112333286D01*
X169961999Y-113083286D02*
X170140570Y-113583286D01*
X170319142Y-113083286D01*
X170747714Y-112833286D02*
X170819142Y-112833286D01*
X170890571Y-112869000D01*
X170926285Y-112904714D01*
X170961999Y-112976143D01*
X170997714Y-113119000D01*
X170997714Y-113297571D01*
X170961999Y-113440429D01*
X170926285Y-113511857D01*
X170890571Y-113547571D01*
X170819142Y-113583286D01*
X170747714Y-113583286D01*
X170676285Y-113547571D01*
X170640571Y-113511857D01*
X170604856Y-113440429D01*
X170569142Y-113297571D01*
X170569142Y-113119000D01*
X170604856Y-112976143D01*
X170640571Y-112904714D01*
X170676285Y-112869000D01*
X170747714Y-112833286D01*
X171319142Y-113511857D02*
X171354857Y-113547571D01*
X171319142Y-113583286D01*
X171283428Y-113547571D01*
X171319142Y-113511857D01*
X171319142Y-113583286D01*
X171712000Y-113583286D02*
X171854857Y-113583286D01*
X171926285Y-113547571D01*
X171962000Y-113511857D01*
X172033428Y-113404714D01*
X172069143Y-113261857D01*
X172069143Y-112976143D01*
X172033428Y-112904714D01*
X171997714Y-112869000D01*
X171926285Y-112833286D01*
X171783428Y-112833286D01*
X171712000Y-112869000D01*
X171676285Y-112904714D01*
X171640571Y-112976143D01*
X171640571Y-113154714D01*
X171676285Y-113226143D01*
X171712000Y-113261857D01*
X171783428Y-113297571D01*
X171926285Y-113297571D01*
X171997714Y-113261857D01*
X172033428Y-113226143D01*
X172069143Y-113154714D01*
D12*
X159575429Y-108845000D02*
X159504000Y-108809286D01*
X159396857Y-108809286D01*
X159289714Y-108845000D01*
X159218286Y-108916429D01*
X159182571Y-108987857D01*
X159146857Y-109130714D01*
X159146857Y-109237857D01*
X159182571Y-109380714D01*
X159218286Y-109452143D01*
X159289714Y-109523571D01*
X159396857Y-109559286D01*
X159468286Y-109559286D01*
X159575429Y-109523571D01*
X159611143Y-109487857D01*
X159611143Y-109237857D01*
X159468286Y-109237857D01*
X159932571Y-109559286D02*
X159932571Y-108809286D01*
X160361143Y-109559286D01*
X160361143Y-108809286D01*
X160718285Y-109559286D02*
X160718285Y-108809286D01*
X160896857Y-108809286D01*
X161004000Y-108845000D01*
X161075428Y-108916429D01*
X161111143Y-108987857D01*
X161146857Y-109130714D01*
X161146857Y-109237857D01*
X161111143Y-109380714D01*
X161075428Y-109452143D01*
X161004000Y-109523571D01*
X160896857Y-109559286D01*
X160718285Y-109559286D01*
X159182571Y-111813571D02*
X159754000Y-111813571D01*
X159468286Y-112099286D02*
X159468286Y-111527857D01*
X160468285Y-111349286D02*
X160111142Y-111349286D01*
X160075428Y-111706429D01*
X160111142Y-111670714D01*
X160182571Y-111635000D01*
X160361142Y-111635000D01*
X160432571Y-111670714D01*
X160468285Y-111706429D01*
X160504000Y-111777857D01*
X160504000Y-111956429D01*
X160468285Y-112027857D01*
X160432571Y-112063571D01*
X160361142Y-112099286D01*
X160182571Y-112099286D01*
X160111142Y-112063571D01*
X160075428Y-112027857D01*
X160718286Y-111349286D02*
X160968286Y-112099286D01*
X161218286Y-111349286D01*
X159182571Y-114353571D02*
X159754000Y-114353571D01*
X160504000Y-114639286D02*
X160075428Y-114639286D01*
X160289714Y-114639286D02*
X160289714Y-113889286D01*
X160218285Y-113996429D01*
X160146857Y-114067857D01*
X160075428Y-114103571D01*
X160789714Y-113960714D02*
X160825428Y-113925000D01*
X160896857Y-113889286D01*
X161075428Y-113889286D01*
X161146857Y-113925000D01*
X161182571Y-113960714D01*
X161218286Y-114032143D01*
X161218286Y-114103571D01*
X161182571Y-114210714D01*
X160754000Y-114639286D01*
X161218286Y-114639286D01*
X161432572Y-113889286D02*
X161682572Y-114639286D01*
X161932572Y-113889286D01*
X159182571Y-116893571D02*
X159754000Y-116893571D01*
X159468286Y-117179286D02*
X159468286Y-116607857D01*
X160504000Y-117179286D02*
X160075428Y-117179286D01*
X160289714Y-117179286D02*
X160289714Y-116429286D01*
X160218285Y-116536429D01*
X160146857Y-116607857D01*
X160075428Y-116643571D01*
X160789714Y-116500714D02*
X160825428Y-116465000D01*
X160896857Y-116429286D01*
X161075428Y-116429286D01*
X161146857Y-116465000D01*
X161182571Y-116500714D01*
X161218286Y-116572143D01*
X161218286Y-116643571D01*
X161182571Y-116750714D01*
X160754000Y-117179286D01*
X161218286Y-117179286D01*
X161432572Y-116429286D02*
X161682572Y-117179286D01*
X161932572Y-116429286D01*
X159611143Y-119647857D02*
X159575429Y-119683571D01*
X159468286Y-119719286D01*
X159396857Y-119719286D01*
X159289714Y-119683571D01*
X159218286Y-119612143D01*
X159182571Y-119540714D01*
X159146857Y-119397857D01*
X159146857Y-119290714D01*
X159182571Y-119147857D01*
X159218286Y-119076429D01*
X159289714Y-119005000D01*
X159396857Y-118969286D01*
X159468286Y-118969286D01*
X159575429Y-119005000D01*
X159611143Y-119040714D01*
X159825429Y-118969286D02*
X160075429Y-119719286D01*
X160325429Y-118969286D01*
X159575429Y-121545000D02*
X159504000Y-121509286D01*
X159396857Y-121509286D01*
X159289714Y-121545000D01*
X159218286Y-121616429D01*
X159182571Y-121687857D01*
X159146857Y-121830714D01*
X159146857Y-121937857D01*
X159182571Y-122080714D01*
X159218286Y-122152143D01*
X159289714Y-122223571D01*
X159396857Y-122259286D01*
X159468286Y-122259286D01*
X159575429Y-122223571D01*
X159611143Y-122187857D01*
X159611143Y-121937857D01*
X159468286Y-121937857D01*
X159896857Y-122045000D02*
X160254000Y-122045000D01*
X159825429Y-122259286D02*
X160075429Y-121509286D01*
X160325429Y-122259286D01*
X160468286Y-121509286D02*
X160896857Y-121509286D01*
X160682571Y-122259286D02*
X160682571Y-121509286D01*
X161146857Y-121866429D02*
X161396857Y-121866429D01*
X161504000Y-122259286D02*
X161146857Y-122259286D01*
X161146857Y-121509286D01*
X161504000Y-121509286D01*
X159396857Y-124049286D02*
X159396857Y-124585000D01*
X159361143Y-124692143D01*
X159289714Y-124763571D01*
X159182571Y-124799286D01*
X159111143Y-124799286D01*
X160075429Y-124299286D02*
X160075429Y-124799286D01*
X159896858Y-124013571D02*
X159718286Y-124549286D01*
X160182572Y-124549286D01*
X160432572Y-124763571D02*
X160539715Y-124799286D01*
X160718286Y-124799286D01*
X160789715Y-124763571D01*
X160825429Y-124727857D01*
X160861144Y-124656429D01*
X160861144Y-124585000D01*
X160825429Y-124513571D01*
X160789715Y-124477857D01*
X160718286Y-124442143D01*
X160575429Y-124406429D01*
X160504001Y-124370714D01*
X160468286Y-124335000D01*
X160432572Y-124263571D01*
X160432572Y-124192143D01*
X160468286Y-124120714D01*
X160504001Y-124085000D01*
X160575429Y-124049286D01*
X160754001Y-124049286D01*
X160861144Y-124085000D01*
X161111144Y-124049286D02*
X161289715Y-124799286D01*
X161432572Y-124263571D01*
X161575430Y-124799286D01*
X161754001Y-124049286D01*
X159396857Y-126589286D02*
X159396857Y-127125000D01*
X159361143Y-127232143D01*
X159289714Y-127303571D01*
X159182571Y-127339286D01*
X159111143Y-127339286D01*
X160075429Y-126839286D02*
X160075429Y-127339286D01*
X159896858Y-126553571D02*
X159718286Y-127089286D01*
X160182572Y-127089286D01*
X159396857Y-129129286D02*
X159396857Y-129665000D01*
X159361143Y-129772143D01*
X159289714Y-129843571D01*
X159182571Y-129879286D01*
X159111143Y-129879286D01*
X159682572Y-129129286D02*
X160146858Y-129129286D01*
X159896858Y-129415000D01*
X160004000Y-129415000D01*
X160075429Y-129450714D01*
X160111143Y-129486429D01*
X160146858Y-129557857D01*
X160146858Y-129736429D01*
X160111143Y-129807857D01*
X160075429Y-129843571D01*
X160004000Y-129879286D01*
X159789715Y-129879286D01*
X159718286Y-129843571D01*
X159682572Y-129807857D01*
X160432572Y-129843571D02*
X160539715Y-129879286D01*
X160718286Y-129879286D01*
X160789715Y-129843571D01*
X160825429Y-129807857D01*
X160861144Y-129736429D01*
X160861144Y-129665000D01*
X160825429Y-129593571D01*
X160789715Y-129557857D01*
X160718286Y-129522143D01*
X160575429Y-129486429D01*
X160504001Y-129450714D01*
X160468286Y-129415000D01*
X160432572Y-129343571D01*
X160432572Y-129272143D01*
X160468286Y-129200714D01*
X160504001Y-129165000D01*
X160575429Y-129129286D01*
X160754001Y-129129286D01*
X160861144Y-129165000D01*
X161111144Y-129129286D02*
X161289715Y-129879286D01*
X161432572Y-129343571D01*
X161575430Y-129879286D01*
X161754001Y-129129286D01*
X159396857Y-131669286D02*
X159396857Y-132205000D01*
X159361143Y-132312143D01*
X159289714Y-132383571D01*
X159182571Y-132419286D01*
X159111143Y-132419286D01*
X159682572Y-131669286D02*
X160146858Y-131669286D01*
X159896858Y-131955000D01*
X160004000Y-131955000D01*
X160075429Y-131990714D01*
X160111143Y-132026429D01*
X160146858Y-132097857D01*
X160146858Y-132276429D01*
X160111143Y-132347857D01*
X160075429Y-132383571D01*
X160004000Y-132419286D01*
X159789715Y-132419286D01*
X159718286Y-132383571D01*
X159682572Y-132347857D01*
X159396857Y-134209286D02*
X159396857Y-134745000D01*
X159361143Y-134852143D01*
X159289714Y-134923571D01*
X159182571Y-134959286D01*
X159111143Y-134959286D01*
X159718286Y-134280714D02*
X159754000Y-134245000D01*
X159825429Y-134209286D01*
X160004000Y-134209286D01*
X160075429Y-134245000D01*
X160111143Y-134280714D01*
X160146858Y-134352143D01*
X160146858Y-134423571D01*
X160111143Y-134530714D01*
X159682572Y-134959286D01*
X160146858Y-134959286D01*
X160432572Y-134923571D02*
X160539715Y-134959286D01*
X160718286Y-134959286D01*
X160789715Y-134923571D01*
X160825429Y-134887857D01*
X160861144Y-134816429D01*
X160861144Y-134745000D01*
X160825429Y-134673571D01*
X160789715Y-134637857D01*
X160718286Y-134602143D01*
X160575429Y-134566429D01*
X160504001Y-134530714D01*
X160468286Y-134495000D01*
X160432572Y-134423571D01*
X160432572Y-134352143D01*
X160468286Y-134280714D01*
X160504001Y-134245000D01*
X160575429Y-134209286D01*
X160754001Y-134209286D01*
X160861144Y-134245000D01*
X161111144Y-134209286D02*
X161289715Y-134959286D01*
X161432572Y-134423571D01*
X161575430Y-134959286D01*
X161754001Y-134209286D01*
X159396857Y-136749286D02*
X159396857Y-137285000D01*
X159361143Y-137392143D01*
X159289714Y-137463571D01*
X159182571Y-137499286D01*
X159111143Y-137499286D01*
X159718286Y-136820714D02*
X159754000Y-136785000D01*
X159825429Y-136749286D01*
X160004000Y-136749286D01*
X160075429Y-136785000D01*
X160111143Y-136820714D01*
X160146858Y-136892143D01*
X160146858Y-136963571D01*
X160111143Y-137070714D01*
X159682572Y-137499286D01*
X160146858Y-137499286D01*
X159396857Y-139289286D02*
X159396857Y-139825000D01*
X159361143Y-139932143D01*
X159289714Y-140003571D01*
X159182571Y-140039286D01*
X159111143Y-140039286D01*
X160146858Y-140039286D02*
X159718286Y-140039286D01*
X159932572Y-140039286D02*
X159932572Y-139289286D01*
X159861143Y-139396429D01*
X159789715Y-139467857D01*
X159718286Y-139503571D01*
X160432572Y-140003571D02*
X160539715Y-140039286D01*
X160718286Y-140039286D01*
X160789715Y-140003571D01*
X160825429Y-139967857D01*
X160861144Y-139896429D01*
X160861144Y-139825000D01*
X160825429Y-139753571D01*
X160789715Y-139717857D01*
X160718286Y-139682143D01*
X160575429Y-139646429D01*
X160504001Y-139610714D01*
X160468286Y-139575000D01*
X160432572Y-139503571D01*
X160432572Y-139432143D01*
X160468286Y-139360714D01*
X160504001Y-139325000D01*
X160575429Y-139289286D01*
X160754001Y-139289286D01*
X160861144Y-139325000D01*
X161111144Y-139289286D02*
X161289715Y-140039286D01*
X161432572Y-139503571D01*
X161575430Y-140039286D01*
X161754001Y-139289286D01*
X159396857Y-141829286D02*
X159396857Y-142365000D01*
X159361143Y-142472143D01*
X159289714Y-142543571D01*
X159182571Y-142579286D01*
X159111143Y-142579286D01*
X160146858Y-142579286D02*
X159718286Y-142579286D01*
X159932572Y-142579286D02*
X159932572Y-141829286D01*
X159861143Y-141936429D01*
X159789715Y-142007857D01*
X159718286Y-142043571D01*
D13*
X201926000Y-117322000D02*
X173486000Y-117322000D01*
X173486000Y-117322000D02*
X173486000Y-107722000D01*
X173486000Y-107722000D02*
X201926000Y-107722000D01*
X201926000Y-107722000D02*
X201926000Y-117322000D01*
D14*
X170456000Y-137668000D02*
X166856000Y-137668000D01*
X168656000Y-139468000D02*
X168656000Y-135868000D01*
X170456000Y-137668000D02*
G75*
G03X170456000Y-137668000I-1800000J0D01*
G01*
X164156000Y-143868000D02*
X164156000Y-132968000D01*
X173156000Y-143868000D02*
X173156000Y-132968000D01*
X173156000Y-132968000D02*
X164156000Y-132968000D01*
X173156000Y-143868000D02*
X164156000Y-143868000D01*
D13*
X171961722Y-123788277D02*
G75*
G03X167350420Y-123788000I-2305722J-1179723D01*
G01*
X171961722Y-126147723D02*
G75*
G02X167350420Y-126148000I-2305722J1179723D01*
G01*
X171961722Y-126147723D02*
G75*
G03X171961580Y-123788000I-2305722J1179723D01*
G01*
X169656000Y-122418000D02*
X169656000Y-127518000D01*
X169696000Y-122418000D02*
X169696000Y-123988000D01*
X169696000Y-125948000D02*
X169696000Y-127518000D01*
X169736000Y-122419000D02*
X169736000Y-123988000D01*
X169736000Y-125948000D02*
X169736000Y-127517000D01*
X169776000Y-122420000D02*
X169776000Y-123988000D01*
X169776000Y-125948000D02*
X169776000Y-127516000D01*
X169816000Y-122422000D02*
X169816000Y-123988000D01*
X169816000Y-125948000D02*
X169816000Y-127514000D01*
X169856000Y-122425000D02*
X169856000Y-123988000D01*
X169856000Y-125948000D02*
X169856000Y-127511000D01*
X169896000Y-122429000D02*
X169896000Y-123988000D01*
X169896000Y-125948000D02*
X169896000Y-127507000D01*
X169936000Y-122433000D02*
X169936000Y-123988000D01*
X169936000Y-125948000D02*
X169936000Y-127503000D01*
X169976000Y-122437000D02*
X169976000Y-123988000D01*
X169976000Y-125948000D02*
X169976000Y-127499000D01*
X170016000Y-122443000D02*
X170016000Y-123988000D01*
X170016000Y-125948000D02*
X170016000Y-127493000D01*
X170056000Y-122449000D02*
X170056000Y-123988000D01*
X170056000Y-125948000D02*
X170056000Y-127487000D01*
X170096000Y-122455000D02*
X170096000Y-123988000D01*
X170096000Y-125948000D02*
X170096000Y-127481000D01*
X170136000Y-122462000D02*
X170136000Y-123988000D01*
X170136000Y-125948000D02*
X170136000Y-127474000D01*
X170176000Y-122470000D02*
X170176000Y-123988000D01*
X170176000Y-125948000D02*
X170176000Y-127466000D01*
X170216000Y-122479000D02*
X170216000Y-123988000D01*
X170216000Y-125948000D02*
X170216000Y-127457000D01*
X170256000Y-122488000D02*
X170256000Y-123988000D01*
X170256000Y-125948000D02*
X170256000Y-127448000D01*
X170296000Y-122498000D02*
X170296000Y-123988000D01*
X170296000Y-125948000D02*
X170296000Y-127438000D01*
X170336000Y-122508000D02*
X170336000Y-123988000D01*
X170336000Y-125948000D02*
X170336000Y-127428000D01*
X170377000Y-122520000D02*
X170377000Y-123988000D01*
X170377000Y-125948000D02*
X170377000Y-127416000D01*
X170417000Y-122532000D02*
X170417000Y-123988000D01*
X170417000Y-125948000D02*
X170417000Y-127404000D01*
X170457000Y-122544000D02*
X170457000Y-123988000D01*
X170457000Y-125948000D02*
X170457000Y-127392000D01*
X170497000Y-122558000D02*
X170497000Y-123988000D01*
X170497000Y-125948000D02*
X170497000Y-127378000D01*
X170537000Y-122572000D02*
X170537000Y-123988000D01*
X170537000Y-125948000D02*
X170537000Y-127364000D01*
X170577000Y-122586000D02*
X170577000Y-123988000D01*
X170577000Y-125948000D02*
X170577000Y-127350000D01*
X170617000Y-122602000D02*
X170617000Y-123988000D01*
X170617000Y-125948000D02*
X170617000Y-127334000D01*
X170657000Y-122618000D02*
X170657000Y-123988000D01*
X170657000Y-125948000D02*
X170657000Y-127318000D01*
X170697000Y-122635000D02*
X170697000Y-123988000D01*
X170697000Y-125948000D02*
X170697000Y-127301000D01*
X170737000Y-122653000D02*
X170737000Y-123988000D01*
X170737000Y-125948000D02*
X170737000Y-127283000D01*
X170777000Y-122672000D02*
X170777000Y-123988000D01*
X170777000Y-125948000D02*
X170777000Y-127264000D01*
X170817000Y-122692000D02*
X170817000Y-123988000D01*
X170817000Y-125948000D02*
X170817000Y-127244000D01*
X170857000Y-122712000D02*
X170857000Y-123988000D01*
X170857000Y-125948000D02*
X170857000Y-127224000D01*
X170897000Y-122734000D02*
X170897000Y-123988000D01*
X170897000Y-125948000D02*
X170897000Y-127202000D01*
X170937000Y-122756000D02*
X170937000Y-123988000D01*
X170937000Y-125948000D02*
X170937000Y-127180000D01*
X170977000Y-122779000D02*
X170977000Y-123988000D01*
X170977000Y-125948000D02*
X170977000Y-127157000D01*
X171017000Y-122803000D02*
X171017000Y-123988000D01*
X171017000Y-125948000D02*
X171017000Y-127133000D01*
X171057000Y-122828000D02*
X171057000Y-123988000D01*
X171057000Y-125948000D02*
X171057000Y-127108000D01*
X171097000Y-122855000D02*
X171097000Y-123988000D01*
X171097000Y-125948000D02*
X171097000Y-127081000D01*
X171137000Y-122882000D02*
X171137000Y-123988000D01*
X171137000Y-125948000D02*
X171137000Y-127054000D01*
X171177000Y-122910000D02*
X171177000Y-123988000D01*
X171177000Y-125948000D02*
X171177000Y-127026000D01*
X171217000Y-122940000D02*
X171217000Y-123988000D01*
X171217000Y-125948000D02*
X171217000Y-126996000D01*
X171257000Y-122971000D02*
X171257000Y-123988000D01*
X171257000Y-125948000D02*
X171257000Y-126965000D01*
X171297000Y-123003000D02*
X171297000Y-123988000D01*
X171297000Y-125948000D02*
X171297000Y-126933000D01*
X171337000Y-123036000D02*
X171337000Y-123988000D01*
X171337000Y-125948000D02*
X171337000Y-126900000D01*
X171377000Y-123071000D02*
X171377000Y-123988000D01*
X171377000Y-125948000D02*
X171377000Y-126865000D01*
X171417000Y-123107000D02*
X171417000Y-123988000D01*
X171417000Y-125948000D02*
X171417000Y-126829000D01*
X171457000Y-123145000D02*
X171457000Y-123988000D01*
X171457000Y-125948000D02*
X171457000Y-126791000D01*
X171497000Y-123185000D02*
X171497000Y-123988000D01*
X171497000Y-125948000D02*
X171497000Y-126751000D01*
X171537000Y-123226000D02*
X171537000Y-123988000D01*
X171537000Y-125948000D02*
X171537000Y-126710000D01*
X171577000Y-123269000D02*
X171577000Y-123988000D01*
X171577000Y-125948000D02*
X171577000Y-126667000D01*
X171617000Y-123314000D02*
X171617000Y-123988000D01*
X171617000Y-125948000D02*
X171617000Y-126622000D01*
X171657000Y-123362000D02*
X171657000Y-126574000D01*
X171697000Y-123412000D02*
X171697000Y-126524000D01*
X171737000Y-123464000D02*
X171737000Y-126472000D01*
X171777000Y-123520000D02*
X171777000Y-126416000D01*
X171817000Y-123578000D02*
X171817000Y-126358000D01*
X171857000Y-123641000D02*
X171857000Y-126295000D01*
X171897000Y-123707000D02*
X171897000Y-126229000D01*
X171937000Y-123779000D02*
X171937000Y-126157000D01*
X171977000Y-123856000D02*
X171977000Y-126080000D01*
X172017000Y-123940000D02*
X172017000Y-125996000D01*
X172057000Y-124034000D02*
X172057000Y-125902000D01*
X172097000Y-124139000D02*
X172097000Y-125797000D01*
X172137000Y-124261000D02*
X172137000Y-125675000D01*
X172177000Y-124409000D02*
X172177000Y-125527000D01*
X172217000Y-124614000D02*
X172217000Y-125322000D01*
X166456000Y-124968000D02*
X167656000Y-124968000D01*
X167056000Y-124318000D02*
X167056000Y-125618000D01*
X171961722Y-116168277D02*
G75*
G03X167350420Y-116168000I-2305722J-1179723D01*
G01*
X171961722Y-118527723D02*
G75*
G02X167350420Y-118528000I-2305722J1179723D01*
G01*
X171961722Y-118527723D02*
G75*
G03X171961580Y-116168000I-2305722J1179723D01*
G01*
X169656000Y-114798000D02*
X169656000Y-119898000D01*
X169696000Y-114798000D02*
X169696000Y-116368000D01*
X169696000Y-118328000D02*
X169696000Y-119898000D01*
X169736000Y-114799000D02*
X169736000Y-116368000D01*
X169736000Y-118328000D02*
X169736000Y-119897000D01*
X169776000Y-114800000D02*
X169776000Y-116368000D01*
X169776000Y-118328000D02*
X169776000Y-119896000D01*
X169816000Y-114802000D02*
X169816000Y-116368000D01*
X169816000Y-118328000D02*
X169816000Y-119894000D01*
X169856000Y-114805000D02*
X169856000Y-116368000D01*
X169856000Y-118328000D02*
X169856000Y-119891000D01*
X169896000Y-114809000D02*
X169896000Y-116368000D01*
X169896000Y-118328000D02*
X169896000Y-119887000D01*
X169936000Y-114813000D02*
X169936000Y-116368000D01*
X169936000Y-118328000D02*
X169936000Y-119883000D01*
X169976000Y-114817000D02*
X169976000Y-116368000D01*
X169976000Y-118328000D02*
X169976000Y-119879000D01*
X170016000Y-114823000D02*
X170016000Y-116368000D01*
X170016000Y-118328000D02*
X170016000Y-119873000D01*
X170056000Y-114829000D02*
X170056000Y-116368000D01*
X170056000Y-118328000D02*
X170056000Y-119867000D01*
X170096000Y-114835000D02*
X170096000Y-116368000D01*
X170096000Y-118328000D02*
X170096000Y-119861000D01*
X170136000Y-114842000D02*
X170136000Y-116368000D01*
X170136000Y-118328000D02*
X170136000Y-119854000D01*
X170176000Y-114850000D02*
X170176000Y-116368000D01*
X170176000Y-118328000D02*
X170176000Y-119846000D01*
X170216000Y-114859000D02*
X170216000Y-116368000D01*
X170216000Y-118328000D02*
X170216000Y-119837000D01*
X170256000Y-114868000D02*
X170256000Y-116368000D01*
X170256000Y-118328000D02*
X170256000Y-119828000D01*
X170296000Y-114878000D02*
X170296000Y-116368000D01*
X170296000Y-118328000D02*
X170296000Y-119818000D01*
X170336000Y-114888000D02*
X170336000Y-116368000D01*
X170336000Y-118328000D02*
X170336000Y-119808000D01*
X170377000Y-114900000D02*
X170377000Y-116368000D01*
X170377000Y-118328000D02*
X170377000Y-119796000D01*
X170417000Y-114912000D02*
X170417000Y-116368000D01*
X170417000Y-118328000D02*
X170417000Y-119784000D01*
X170457000Y-114924000D02*
X170457000Y-116368000D01*
X170457000Y-118328000D02*
X170457000Y-119772000D01*
X170497000Y-114938000D02*
X170497000Y-116368000D01*
X170497000Y-118328000D02*
X170497000Y-119758000D01*
X170537000Y-114952000D02*
X170537000Y-116368000D01*
X170537000Y-118328000D02*
X170537000Y-119744000D01*
X170577000Y-114966000D02*
X170577000Y-116368000D01*
X170577000Y-118328000D02*
X170577000Y-119730000D01*
X170617000Y-114982000D02*
X170617000Y-116368000D01*
X170617000Y-118328000D02*
X170617000Y-119714000D01*
X170657000Y-114998000D02*
X170657000Y-116368000D01*
X170657000Y-118328000D02*
X170657000Y-119698000D01*
X170697000Y-115015000D02*
X170697000Y-116368000D01*
X170697000Y-118328000D02*
X170697000Y-119681000D01*
X170737000Y-115033000D02*
X170737000Y-116368000D01*
X170737000Y-118328000D02*
X170737000Y-119663000D01*
X170777000Y-115052000D02*
X170777000Y-116368000D01*
X170777000Y-118328000D02*
X170777000Y-119644000D01*
X170817000Y-115072000D02*
X170817000Y-116368000D01*
X170817000Y-118328000D02*
X170817000Y-119624000D01*
X170857000Y-115092000D02*
X170857000Y-116368000D01*
X170857000Y-118328000D02*
X170857000Y-119604000D01*
X170897000Y-115114000D02*
X170897000Y-116368000D01*
X170897000Y-118328000D02*
X170897000Y-119582000D01*
X170937000Y-115136000D02*
X170937000Y-116368000D01*
X170937000Y-118328000D02*
X170937000Y-119560000D01*
X170977000Y-115159000D02*
X170977000Y-116368000D01*
X170977000Y-118328000D02*
X170977000Y-119537000D01*
X171017000Y-115183000D02*
X171017000Y-116368000D01*
X171017000Y-118328000D02*
X171017000Y-119513000D01*
X171057000Y-115208000D02*
X171057000Y-116368000D01*
X171057000Y-118328000D02*
X171057000Y-119488000D01*
X171097000Y-115235000D02*
X171097000Y-116368000D01*
X171097000Y-118328000D02*
X171097000Y-119461000D01*
X171137000Y-115262000D02*
X171137000Y-116368000D01*
X171137000Y-118328000D02*
X171137000Y-119434000D01*
X171177000Y-115290000D02*
X171177000Y-116368000D01*
X171177000Y-118328000D02*
X171177000Y-119406000D01*
X171217000Y-115320000D02*
X171217000Y-116368000D01*
X171217000Y-118328000D02*
X171217000Y-119376000D01*
X171257000Y-115351000D02*
X171257000Y-116368000D01*
X171257000Y-118328000D02*
X171257000Y-119345000D01*
X171297000Y-115383000D02*
X171297000Y-116368000D01*
X171297000Y-118328000D02*
X171297000Y-119313000D01*
X171337000Y-115416000D02*
X171337000Y-116368000D01*
X171337000Y-118328000D02*
X171337000Y-119280000D01*
X171377000Y-115451000D02*
X171377000Y-116368000D01*
X171377000Y-118328000D02*
X171377000Y-119245000D01*
X171417000Y-115487000D02*
X171417000Y-116368000D01*
X171417000Y-118328000D02*
X171417000Y-119209000D01*
X171457000Y-115525000D02*
X171457000Y-116368000D01*
X171457000Y-118328000D02*
X171457000Y-119171000D01*
X171497000Y-115565000D02*
X171497000Y-116368000D01*
X171497000Y-118328000D02*
X171497000Y-119131000D01*
X171537000Y-115606000D02*
X171537000Y-116368000D01*
X171537000Y-118328000D02*
X171537000Y-119090000D01*
X171577000Y-115649000D02*
X171577000Y-116368000D01*
X171577000Y-118328000D02*
X171577000Y-119047000D01*
X171617000Y-115694000D02*
X171617000Y-116368000D01*
X171617000Y-118328000D02*
X171617000Y-119002000D01*
X171657000Y-115742000D02*
X171657000Y-118954000D01*
X171697000Y-115792000D02*
X171697000Y-118904000D01*
X171737000Y-115844000D02*
X171737000Y-118852000D01*
X171777000Y-115900000D02*
X171777000Y-118796000D01*
X171817000Y-115958000D02*
X171817000Y-118738000D01*
X171857000Y-116021000D02*
X171857000Y-118675000D01*
X171897000Y-116087000D02*
X171897000Y-118609000D01*
X171937000Y-116159000D02*
X171937000Y-118537000D01*
X171977000Y-116236000D02*
X171977000Y-118460000D01*
X172017000Y-116320000D02*
X172017000Y-118376000D01*
X172057000Y-116414000D02*
X172057000Y-118282000D01*
X172097000Y-116519000D02*
X172097000Y-118177000D01*
X172137000Y-116641000D02*
X172137000Y-118055000D01*
X172177000Y-116789000D02*
X172177000Y-117907000D01*
X172217000Y-116994000D02*
X172217000Y-117702000D01*
X166456000Y-117348000D02*
X167656000Y-117348000D01*
X167056000Y-116698000D02*
X167056000Y-117998000D01*
X173684000Y-118644000D02*
X179804000Y-118644000D01*
X173684000Y-123164000D02*
X179804000Y-123164000D01*
X173684000Y-118644000D02*
X173684000Y-119908000D01*
X173684000Y-121900000D02*
X173684000Y-123164000D01*
X179804000Y-118644000D02*
X179804000Y-119908000D01*
X179804000Y-121900000D02*
X179804000Y-123164000D01*
X173684000Y-124232000D02*
X179804000Y-124232000D01*
X173684000Y-128752000D02*
X179804000Y-128752000D01*
X173684000Y-124232000D02*
X173684000Y-125496000D01*
X173684000Y-127488000D02*
X173684000Y-128752000D01*
X179804000Y-124232000D02*
X179804000Y-125496000D01*
X179804000Y-127488000D02*
X179804000Y-128752000D01*
X191382000Y-122822000D02*
X191382000Y-120002000D01*
X191382000Y-120002000D02*
X186062000Y-120002000D01*
X186062000Y-120002000D02*
X186062000Y-122822000D01*
X186062000Y-122822000D02*
X191382000Y-122822000D01*
X193792000Y-121412000D02*
X191382000Y-121412000D01*
X183652000Y-121412000D02*
X186062000Y-121412000D01*
X190542000Y-122822000D02*
X190542000Y-120002000D01*
X191382000Y-128410000D02*
X191382000Y-125590000D01*
X191382000Y-125590000D02*
X186062000Y-125590000D01*
X186062000Y-125590000D02*
X186062000Y-128410000D01*
X186062000Y-128410000D02*
X191382000Y-128410000D01*
X193792000Y-127000000D02*
X191382000Y-127000000D01*
X183652000Y-127000000D02*
X186062000Y-127000000D01*
X190542000Y-128410000D02*
X190542000Y-125590000D01*
X158302000Y-107890000D02*
X155642000Y-107890000D01*
X158302000Y-140970000D02*
X158302000Y-107890000D01*
X155642000Y-140970000D02*
X155642000Y-107890000D01*
X158302000Y-140970000D02*
X155642000Y-140970000D01*
X158302000Y-142240000D02*
X158302000Y-143570000D01*
X158302000Y-143570000D02*
X156972000Y-143570000D01*
X162774000Y-117002000D02*
X165394000Y-117002000D01*
X165394000Y-117002000D02*
X165394000Y-110582000D01*
X165394000Y-110582000D02*
X162774000Y-110582000D01*
X162774000Y-110582000D02*
X162774000Y-117002000D01*
X164084000Y-117892000D02*
X164084000Y-117002000D01*
X164084000Y-109692000D02*
X164084000Y-110582000D01*
X162774000Y-129702000D02*
X165394000Y-129702000D01*
X165394000Y-129702000D02*
X165394000Y-123282000D01*
X165394000Y-123282000D02*
X162774000Y-123282000D01*
X162774000Y-123282000D02*
X162774000Y-129702000D01*
X164084000Y-130592000D02*
X164084000Y-129702000D01*
X164084000Y-122392000D02*
X164084000Y-123282000D01*
X201756000Y-118832000D02*
X201756000Y-129072000D01*
X197115000Y-118832000D02*
X197115000Y-129072000D01*
X201756000Y-118832000D02*
X197115000Y-118832000D01*
X201756000Y-129072000D02*
X197115000Y-129072000D01*
X200246000Y-118832000D02*
X200246000Y-129072000D01*
X201756000Y-122102000D02*
X200246000Y-122102000D01*
X201756000Y-125803000D02*
X200246000Y-125803000D01*
D14*
X180108000Y-137668000D02*
X176508000Y-137668000D01*
X178308000Y-139468000D02*
X178308000Y-135868000D01*
X180108000Y-137668000D02*
G75*
G03X180108000Y-137668000I-1800000J0D01*
G01*
X173808000Y-143868000D02*
X173808000Y-132968000D01*
X182808000Y-143868000D02*
X182808000Y-132968000D01*
X182808000Y-132968000D02*
X173808000Y-132968000D01*
X182808000Y-143868000D02*
X173808000Y-143868000D01*
X189760000Y-137668000D02*
X186160000Y-137668000D01*
X187960000Y-139468000D02*
X187960000Y-135868000D01*
X189760000Y-137668000D02*
G75*
G03X189760000Y-137668000I-1800000J0D01*
G01*
X183460000Y-143868000D02*
X183460000Y-132968000D01*
X192460000Y-143868000D02*
X192460000Y-132968000D01*
X192460000Y-132968000D02*
X183460000Y-132968000D01*
X192460000Y-143868000D02*
X183460000Y-143868000D01*
X199412000Y-137668000D02*
X195812000Y-137668000D01*
X197612000Y-139468000D02*
X197612000Y-135868000D01*
X199412000Y-137668000D02*
G75*
G03X199412000Y-137668000I-1800000J0D01*
G01*
X193112000Y-143868000D02*
X193112000Y-132968000D01*
X202112000Y-143868000D02*
X202112000Y-132968000D01*
X202112000Y-132968000D02*
X193112000Y-132968000D01*
X202112000Y-143868000D02*
X193112000Y-143868000D01*
X195246667Y-117816381D02*
X195246667Y-118530667D01*
X195199047Y-118673524D01*
X195103809Y-118768762D01*
X194960952Y-118816381D01*
X194865714Y-118816381D01*
X196246667Y-118816381D02*
X195675238Y-118816381D01*
X195960952Y-118816381D02*
X195960952Y-117816381D01*
X195865714Y-117959238D01*
X195770476Y-118054476D01*
X195675238Y-118102095D01*
D13*
X196881715Y-109984381D02*
X196310286Y-109984381D01*
X196596000Y-109984381D02*
X196596000Y-108984381D01*
X196500762Y-109127238D01*
X196405524Y-109222476D01*
X196310286Y-109270095D01*
D14*
X171878667Y-131532381D02*
X171878667Y-132246667D01*
X171831047Y-132389524D01*
X171735809Y-132484762D01*
X171592952Y-132532381D01*
X171497714Y-132532381D01*
X172307238Y-131627619D02*
X172354857Y-131580000D01*
X172450095Y-131532381D01*
X172688191Y-131532381D01*
X172783429Y-131580000D01*
X172831048Y-131627619D01*
X172878667Y-131722857D01*
X172878667Y-131818095D01*
X172831048Y-131960952D01*
X172259619Y-132532381D01*
X172878667Y-132532381D01*
X169505334Y-128881143D02*
X169457715Y-128928762D01*
X169314858Y-128976381D01*
X169219620Y-128976381D01*
X169076762Y-128928762D01*
X168981524Y-128833524D01*
X168933905Y-128738286D01*
X168886286Y-128547810D01*
X168886286Y-128404952D01*
X168933905Y-128214476D01*
X168981524Y-128119238D01*
X169076762Y-128024000D01*
X169219620Y-127976381D01*
X169314858Y-127976381D01*
X169457715Y-128024000D01*
X169505334Y-128071619D01*
X170457715Y-128976381D02*
X169886286Y-128976381D01*
X170172000Y-128976381D02*
X170172000Y-127976381D01*
X170076762Y-128119238D01*
X169981524Y-128214476D01*
X169886286Y-128262095D01*
X169505334Y-121261143D02*
X169457715Y-121308762D01*
X169314858Y-121356381D01*
X169219620Y-121356381D01*
X169076762Y-121308762D01*
X168981524Y-121213524D01*
X168933905Y-121118286D01*
X168886286Y-120927810D01*
X168886286Y-120784952D01*
X168933905Y-120594476D01*
X168981524Y-120499238D01*
X169076762Y-120404000D01*
X169219620Y-120356381D01*
X169314858Y-120356381D01*
X169457715Y-120404000D01*
X169505334Y-120451619D01*
X169886286Y-120451619D02*
X169933905Y-120404000D01*
X170029143Y-120356381D01*
X170267239Y-120356381D01*
X170362477Y-120404000D01*
X170410096Y-120451619D01*
X170457715Y-120546857D01*
X170457715Y-120642095D01*
X170410096Y-120784952D01*
X169838667Y-121356381D01*
X170457715Y-121356381D01*
X180935334Y-119229143D02*
X180887715Y-119276762D01*
X180744858Y-119324381D01*
X180649620Y-119324381D01*
X180506762Y-119276762D01*
X180411524Y-119181524D01*
X180363905Y-119086286D01*
X180316286Y-118895810D01*
X180316286Y-118752952D01*
X180363905Y-118562476D01*
X180411524Y-118467238D01*
X180506762Y-118372000D01*
X180649620Y-118324381D01*
X180744858Y-118324381D01*
X180887715Y-118372000D01*
X180935334Y-118419619D01*
X181268667Y-118324381D02*
X181887715Y-118324381D01*
X181554381Y-118705333D01*
X181697239Y-118705333D01*
X181792477Y-118752952D01*
X181840096Y-118800571D01*
X181887715Y-118895810D01*
X181887715Y-119133905D01*
X181840096Y-119229143D01*
X181792477Y-119276762D01*
X181697239Y-119324381D01*
X181411524Y-119324381D01*
X181316286Y-119276762D01*
X181268667Y-119229143D01*
X180935334Y-124817143D02*
X180887715Y-124864762D01*
X180744858Y-124912381D01*
X180649620Y-124912381D01*
X180506762Y-124864762D01*
X180411524Y-124769524D01*
X180363905Y-124674286D01*
X180316286Y-124483810D01*
X180316286Y-124340952D01*
X180363905Y-124150476D01*
X180411524Y-124055238D01*
X180506762Y-123960000D01*
X180649620Y-123912381D01*
X180744858Y-123912381D01*
X180887715Y-123960000D01*
X180935334Y-124007619D01*
X181792477Y-124245714D02*
X181792477Y-124912381D01*
X181554381Y-123864762D02*
X181316286Y-124579048D01*
X181935334Y-124579048D01*
X187729905Y-119324381D02*
X187729905Y-118324381D01*
X187968000Y-118324381D01*
X188110858Y-118372000D01*
X188206096Y-118467238D01*
X188253715Y-118562476D01*
X188301334Y-118752952D01*
X188301334Y-118895810D01*
X188253715Y-119086286D01*
X188206096Y-119181524D01*
X188110858Y-119276762D01*
X187968000Y-119324381D01*
X187729905Y-119324381D01*
X189253715Y-119324381D02*
X188682286Y-119324381D01*
X188968000Y-119324381D02*
X188968000Y-118324381D01*
X188872762Y-118467238D01*
X188777524Y-118562476D01*
X188682286Y-118610095D01*
X187729905Y-124912381D02*
X187729905Y-123912381D01*
X187968000Y-123912381D01*
X188110858Y-123960000D01*
X188206096Y-124055238D01*
X188253715Y-124150476D01*
X188301334Y-124340952D01*
X188301334Y-124483810D01*
X188253715Y-124674286D01*
X188206096Y-124769524D01*
X188110858Y-124864762D01*
X187968000Y-124912381D01*
X187729905Y-124912381D01*
X188682286Y-124007619D02*
X188729905Y-123960000D01*
X188825143Y-123912381D01*
X189063239Y-123912381D01*
X189158477Y-123960000D01*
X189206096Y-124007619D01*
X189253715Y-124102857D01*
X189253715Y-124198095D01*
X189206096Y-124340952D01*
X188634667Y-124912381D01*
X189253715Y-124912381D01*
X166822381Y-114974666D02*
X166346190Y-115308000D01*
X166822381Y-115546095D02*
X165822381Y-115546095D01*
X165822381Y-115165142D01*
X165870000Y-115069904D01*
X165917619Y-115022285D01*
X166012857Y-114974666D01*
X166155714Y-114974666D01*
X166250952Y-115022285D01*
X166298571Y-115069904D01*
X166346190Y-115165142D01*
X166346190Y-115546095D01*
X166822381Y-114022285D02*
X166822381Y-114593714D01*
X166822381Y-114308000D02*
X165822381Y-114308000D01*
X165965238Y-114403238D01*
X166060476Y-114498476D01*
X166108095Y-114593714D01*
X166822381Y-128690666D02*
X166346190Y-129024000D01*
X166822381Y-129262095D02*
X165822381Y-129262095D01*
X165822381Y-128881142D01*
X165870000Y-128785904D01*
X165917619Y-128738285D01*
X166012857Y-128690666D01*
X166155714Y-128690666D01*
X166250952Y-128738285D01*
X166298571Y-128785904D01*
X166346190Y-128881142D01*
X166346190Y-129262095D01*
X165917619Y-128309714D02*
X165870000Y-128262095D01*
X165822381Y-128166857D01*
X165822381Y-127928761D01*
X165870000Y-127833523D01*
X165917619Y-127785904D01*
X166012857Y-127738285D01*
X166108095Y-127738285D01*
X166250952Y-127785904D01*
X166822381Y-128357333D01*
X166822381Y-127738285D01*
X195540381Y-124713905D02*
X196349905Y-124713905D01*
X196445143Y-124666286D01*
X196492762Y-124618667D01*
X196540381Y-124523429D01*
X196540381Y-124332952D01*
X196492762Y-124237714D01*
X196445143Y-124190095D01*
X196349905Y-124142476D01*
X195540381Y-124142476D01*
X196540381Y-123142476D02*
X196540381Y-123713905D01*
X196540381Y-123428191D02*
X195540381Y-123428191D01*
X195683238Y-123523429D01*
X195778476Y-123618667D01*
X195826095Y-123713905D01*
X181530667Y-131532381D02*
X181530667Y-132246667D01*
X181483047Y-132389524D01*
X181387809Y-132484762D01*
X181244952Y-132532381D01*
X181149714Y-132532381D01*
X181911619Y-131532381D02*
X182530667Y-131532381D01*
X182197333Y-131913333D01*
X182340191Y-131913333D01*
X182435429Y-131960952D01*
X182483048Y-132008571D01*
X182530667Y-132103810D01*
X182530667Y-132341905D01*
X182483048Y-132437143D01*
X182435429Y-132484762D01*
X182340191Y-132532381D01*
X182054476Y-132532381D01*
X181959238Y-132484762D01*
X181911619Y-132437143D01*
X191182667Y-131532381D02*
X191182667Y-132246667D01*
X191135047Y-132389524D01*
X191039809Y-132484762D01*
X190896952Y-132532381D01*
X190801714Y-132532381D01*
X192087429Y-131865714D02*
X192087429Y-132532381D01*
X191849333Y-131484762D02*
X191611238Y-132199048D01*
X192230286Y-132199048D01*
X200834667Y-131532381D02*
X200834667Y-132246667D01*
X200787047Y-132389524D01*
X200691809Y-132484762D01*
X200548952Y-132532381D01*
X200453714Y-132532381D01*
X201787048Y-131532381D02*
X201310857Y-131532381D01*
X201263238Y-132008571D01*
X201310857Y-131960952D01*
X201406095Y-131913333D01*
X201644191Y-131913333D01*
X201739429Y-131960952D01*
X201787048Y-132008571D01*
X201834667Y-132103810D01*
X201834667Y-132341905D01*
X201787048Y-132437143D01*
X201739429Y-132484762D01*
X201644191Y-132532381D01*
X201406095Y-132532381D01*
X201310857Y-132484762D01*
X201263238Y-132437143D01*
M02*
