%TF.GenerationSoftware,KiCad,Pcbnew,4.0.6*%
%TF.CreationDate,2017-08-26T10:37:18+02:00*%
%TF.ProjectId,EW Power Breakout,455720506F77657220427265616B6F75,1.0*%
%TF.FileFunction,Soldermask,Top*%
%FSLAX46Y46*%
G04 Gerber Fmt 4.6, Leading zero omitted, Abs format (unit mm)*
G04 Created by KiCad (PCBNEW 4.0.6) date 2017 August 26, Saturday 10:37:18*
%MOMM*%
%LPD*%
G01*
G04 APERTURE LIST*
%ADD10C,0.100000*%
%ADD11R,2.127200X2.127200*%
%ADD12O,2.127200X2.127200*%
%ADD13C,2.200000*%
%ADD14C,3.600000*%
%ADD15R,2.000000X2.000000*%
%ADD16C,2.000000*%
%ADD17R,2.600000X2.600000*%
%ADD18O,2.600000X2.600000*%
%ADD19R,2.100000X2.100000*%
%ADD20O,2.100000X2.100000*%
%ADD21O,2.000000X2.000000*%
%ADD22R,2.200000X2.200000*%
%ADD23O,2.200000X2.200000*%
G04 APERTURE END LIST*
D10*
D11*
X196596000Y-111252000D03*
D12*
X196596000Y-113792000D03*
X194056000Y-111252000D03*
X194056000Y-113792000D03*
X191516000Y-111252000D03*
X191516000Y-113792000D03*
X188976000Y-111252000D03*
X188976000Y-113792000D03*
X186436000Y-111252000D03*
X186436000Y-113792000D03*
X183896000Y-111252000D03*
X183896000Y-113792000D03*
X181356000Y-111252000D03*
X181356000Y-113792000D03*
X178816000Y-111252000D03*
X178816000Y-113792000D03*
D13*
X168656000Y-134288000D03*
X168656000Y-131188000D03*
X168656000Y-142588000D03*
D14*
X168656000Y-137668000D03*
D15*
X168656000Y-124968000D03*
D16*
X170656000Y-124968000D03*
D15*
X168656000Y-117348000D03*
D16*
X170656000Y-117348000D03*
X174244000Y-120904000D03*
X179244000Y-120904000D03*
X174244000Y-126492000D03*
X179244000Y-126492000D03*
D17*
X195072000Y-121412000D03*
D18*
X182372000Y-121412000D03*
D17*
X195072000Y-127000000D03*
D18*
X182372000Y-127000000D03*
D19*
X156972000Y-142240000D03*
D20*
X156972000Y-139700000D03*
X156972000Y-137160000D03*
X156972000Y-134620000D03*
X156972000Y-132080000D03*
X156972000Y-129540000D03*
X156972000Y-127000000D03*
X156972000Y-124460000D03*
X156972000Y-121920000D03*
X156972000Y-119380000D03*
X156972000Y-116840000D03*
X156972000Y-114300000D03*
X156972000Y-111760000D03*
X156972000Y-109220000D03*
D16*
X164084000Y-118872000D03*
D21*
X164084000Y-108712000D03*
D16*
X164084000Y-131572000D03*
D21*
X164084000Y-121412000D03*
D22*
X199136000Y-121412000D03*
D23*
X199136000Y-123952000D03*
X199136000Y-126492000D03*
D13*
X178308000Y-134288000D03*
X178308000Y-131188000D03*
X178308000Y-142588000D03*
D14*
X178308000Y-137668000D03*
D13*
X187960000Y-134288000D03*
X187960000Y-131188000D03*
X187960000Y-142588000D03*
D14*
X187960000Y-137668000D03*
D13*
X197612000Y-134288000D03*
X197612000Y-131188000D03*
X197612000Y-142588000D03*
D14*
X197612000Y-137668000D03*
M02*
