G04 #@! TF.FileFunction,Copper,L2,Bot,Signal*
%FSLAX46Y46*%
G04 Gerber Fmt 4.6, Leading zero omitted, Abs format (unit mm)*
G04 Created by KiCad (PCBNEW 4.0.6) date 2017 August 25, Friday 18:10:59*
%MOMM*%
%LPD*%
G01*
G04 APERTURE LIST*
%ADD10C,0.100000*%
%ADD11R,1.727200X1.727200*%
%ADD12O,1.727200X1.727200*%
%ADD13C,1.800000*%
%ADD14R,1.600000X1.600000*%
%ADD15C,1.600000*%
%ADD16R,2.200000X2.200000*%
%ADD17O,2.200000X2.200000*%
%ADD18R,1.700000X1.700000*%
%ADD19O,1.700000X1.700000*%
%ADD20O,1.600000X1.600000*%
%ADD21R,1.800000X1.800000*%
%ADD22O,1.800000X1.800000*%
%ADD23C,0.700000*%
%ADD24C,0.600000*%
%ADD25C,0.400000*%
%ADD26C,0.250000*%
%ADD27C,0.254000*%
G04 APERTURE END LIST*
D10*
D11*
X196596000Y-111252000D03*
D12*
X196596000Y-113792000D03*
X194056000Y-111252000D03*
X194056000Y-113792000D03*
X191516000Y-111252000D03*
X191516000Y-113792000D03*
X188976000Y-111252000D03*
X188976000Y-113792000D03*
X186436000Y-111252000D03*
X186436000Y-113792000D03*
X183896000Y-111252000D03*
X183896000Y-113792000D03*
X181356000Y-111252000D03*
X181356000Y-113792000D03*
X178816000Y-111252000D03*
X178816000Y-113792000D03*
D13*
X168656000Y-134288000D03*
X168656000Y-131188000D03*
X168656000Y-142588000D03*
D14*
X168656000Y-124968000D03*
D15*
X170656000Y-124968000D03*
D14*
X168656000Y-117348000D03*
D15*
X170656000Y-117348000D03*
X174244000Y-120904000D03*
X179244000Y-120904000D03*
X174244000Y-126492000D03*
X179244000Y-126492000D03*
D16*
X195072000Y-121412000D03*
D17*
X182372000Y-121412000D03*
D16*
X195072000Y-127000000D03*
D17*
X182372000Y-127000000D03*
D18*
X156972000Y-142240000D03*
D19*
X156972000Y-139700000D03*
X156972000Y-137160000D03*
X156972000Y-134620000D03*
X156972000Y-132080000D03*
X156972000Y-129540000D03*
X156972000Y-127000000D03*
X156972000Y-124460000D03*
X156972000Y-121920000D03*
X156972000Y-119380000D03*
X156972000Y-116840000D03*
X156972000Y-114300000D03*
X156972000Y-111760000D03*
X156972000Y-109220000D03*
D15*
X164084000Y-118872000D03*
D20*
X164084000Y-108712000D03*
D15*
X164084000Y-131572000D03*
D20*
X164084000Y-121412000D03*
D21*
X199136000Y-121412000D03*
D22*
X199136000Y-123952000D03*
X199136000Y-126492000D03*
D13*
X178308000Y-134288000D03*
X178308000Y-131188000D03*
X178308000Y-142588000D03*
X187960000Y-134288000D03*
X187960000Y-131188000D03*
X187960000Y-142588000D03*
X197612000Y-134288000D03*
X197612000Y-131188000D03*
X197612000Y-142588000D03*
D23*
X174498000Y-122936000D03*
X171577000Y-122428000D03*
X197231000Y-123825000D03*
X194564000Y-123825000D03*
X162052000Y-117856000D03*
X162052000Y-123190000D03*
X183134000Y-124714000D03*
D24*
X198628000Y-117856000D03*
X169418000Y-108331000D03*
X165989000Y-136906000D03*
X163703000Y-139192000D03*
X162306000Y-136398000D03*
X163957000Y-134747000D03*
X167513000Y-129413000D03*
X158369000Y-130937000D03*
X167513000Y-128397000D03*
X161798000Y-128270000D03*
D25*
X172085000Y-122936000D02*
X174498000Y-122936000D01*
X171577000Y-122428000D02*
X172085000Y-122936000D01*
X197231000Y-123825000D02*
X194564000Y-123825000D01*
X188976000Y-111252000D02*
X188976000Y-110744000D01*
X199136000Y-123952000D02*
X199390000Y-123952000D01*
X199390000Y-123952000D02*
X200914000Y-122428000D01*
X196088000Y-115824000D02*
X194056000Y-113792000D01*
X198120000Y-115824000D02*
X196088000Y-115824000D01*
X200914000Y-118618000D02*
X198120000Y-115824000D01*
X200914000Y-122428000D02*
X200914000Y-118618000D01*
X174244000Y-120904000D02*
X174371000Y-120904000D01*
X174371000Y-120904000D02*
X179705000Y-115570000D01*
X187198000Y-115570000D02*
X188976000Y-113792000D01*
X179705000Y-115570000D02*
X187198000Y-115570000D01*
X178308000Y-131188000D02*
X178308000Y-132080000D01*
X178308000Y-132080000D02*
X186436000Y-140208000D01*
X186436000Y-140208000D02*
X196596000Y-140208000D01*
X187960000Y-131188000D02*
X187960000Y-131572000D01*
X187960000Y-131572000D02*
X196596000Y-140208000D01*
X196596000Y-140208000D02*
X199136000Y-140208000D01*
X199136000Y-140208000D02*
X200660000Y-138684000D01*
X200660000Y-138684000D02*
X200660000Y-134236000D01*
X200660000Y-134236000D02*
X197612000Y-131188000D01*
X156972000Y-109220000D02*
X161544000Y-109220000D01*
X164084000Y-111760000D02*
X170656000Y-111760000D01*
X161544000Y-109220000D02*
X164084000Y-111760000D01*
X170656000Y-117348000D02*
X170656000Y-111760000D01*
X170656000Y-117348000D02*
X170656000Y-124968000D01*
X174244000Y-120904000D02*
X174212000Y-120904000D01*
X174212000Y-120904000D02*
X170656000Y-117348000D01*
X174212000Y-120904000D02*
X179244000Y-125936000D01*
X179244000Y-125936000D02*
X179244000Y-126492000D01*
X197612000Y-131188000D02*
X197612000Y-131064000D01*
X197612000Y-131064000D02*
X201168000Y-127508000D01*
X201168000Y-127508000D02*
X201168000Y-125984000D01*
X201168000Y-125984000D02*
X199136000Y-123952000D01*
X168656000Y-131188000D02*
X178308000Y-131188000D01*
X162052000Y-123190000D02*
X162052000Y-117856000D01*
X199136000Y-126492000D02*
X198628000Y-126492000D01*
X198628000Y-126492000D02*
X196596000Y-124714000D01*
X196596000Y-124714000D02*
X183134000Y-124714000D01*
D26*
X198628000Y-117856000D02*
X195072000Y-121412000D01*
X156972000Y-119380000D02*
X156972000Y-119126000D01*
X156972000Y-119126000D02*
X155448000Y-117602000D01*
X155448000Y-117602000D02*
X155448000Y-107950000D01*
X155448000Y-107950000D02*
X155956000Y-107442000D01*
X155956000Y-107442000D02*
X168402000Y-107442000D01*
X168402000Y-107442000D02*
X169418000Y-108331000D01*
X163703000Y-139192000D02*
X165989000Y-136906000D01*
X162306000Y-136398000D02*
X163957000Y-134747000D01*
X159893000Y-129413000D02*
X167513000Y-129413000D01*
X158369000Y-130937000D02*
X159893000Y-129413000D01*
X161925000Y-128397000D02*
X167513000Y-128397000D01*
X161798000Y-128270000D02*
X161925000Y-128397000D01*
D27*
G36*
X202490000Y-107538305D02*
X202490000Y-144048394D01*
X202468394Y-144070000D01*
X198044902Y-144070000D01*
X198480371Y-143890068D01*
X198912551Y-143458643D01*
X199146733Y-142894670D01*
X199147265Y-142284009D01*
X198914068Y-141719629D01*
X198482643Y-141287449D01*
X197918670Y-141053267D01*
X197308009Y-141052735D01*
X196743629Y-141285932D01*
X196311449Y-141717357D01*
X196077267Y-142281330D01*
X196076735Y-142891991D01*
X196309932Y-143456371D01*
X196741357Y-143888551D01*
X197178335Y-144070000D01*
X188392902Y-144070000D01*
X188828371Y-143890068D01*
X189260551Y-143458643D01*
X189494733Y-142894670D01*
X189495265Y-142284009D01*
X189262068Y-141719629D01*
X188830643Y-141287449D01*
X188266670Y-141053267D01*
X187656009Y-141052735D01*
X187091629Y-141285932D01*
X186659449Y-141717357D01*
X186425267Y-142281330D01*
X186424735Y-142891991D01*
X186657932Y-143456371D01*
X187089357Y-143888551D01*
X187526335Y-144070000D01*
X178740902Y-144070000D01*
X179176371Y-143890068D01*
X179608551Y-143458643D01*
X179842733Y-142894670D01*
X179843265Y-142284009D01*
X179610068Y-141719629D01*
X179178643Y-141287449D01*
X178614670Y-141053267D01*
X178004009Y-141052735D01*
X177439629Y-141285932D01*
X177007449Y-141717357D01*
X176773267Y-142281330D01*
X176772735Y-142891991D01*
X177005932Y-143456371D01*
X177437357Y-143888551D01*
X177874335Y-144070000D01*
X169088902Y-144070000D01*
X169524371Y-143890068D01*
X169956551Y-143458643D01*
X170190733Y-142894670D01*
X170191265Y-142284009D01*
X169958068Y-141719629D01*
X169526643Y-141287449D01*
X168962670Y-141053267D01*
X168352009Y-141052735D01*
X167787629Y-141285932D01*
X167355449Y-141717357D01*
X167121267Y-142281330D01*
X167120735Y-142891991D01*
X167353932Y-143456371D01*
X167785357Y-143888551D01*
X168222335Y-144070000D01*
X155650000Y-144070000D01*
X155650000Y-143529149D01*
X155657910Y-143541441D01*
X155870110Y-143686431D01*
X156122000Y-143737440D01*
X157822000Y-143737440D01*
X158057317Y-143693162D01*
X158273441Y-143554090D01*
X158418431Y-143341890D01*
X158469440Y-143090000D01*
X158469440Y-141390000D01*
X158425162Y-141154683D01*
X158286090Y-140938559D01*
X158073890Y-140793569D01*
X158006459Y-140779914D01*
X158051147Y-140750054D01*
X158373054Y-140268285D01*
X158486093Y-139700000D01*
X158421878Y-139377167D01*
X162767838Y-139377167D01*
X162909883Y-139720943D01*
X163172673Y-139984192D01*
X163516201Y-140126838D01*
X163888167Y-140127162D01*
X164231943Y-139985117D01*
X164495192Y-139722327D01*
X164637838Y-139378799D01*
X164637879Y-139331923D01*
X166128680Y-137841122D01*
X166174167Y-137841162D01*
X166420937Y-137739199D01*
X166420613Y-138110619D01*
X166760155Y-138932372D01*
X167388321Y-139561636D01*
X168209481Y-139902611D01*
X169098619Y-139903387D01*
X169920372Y-139563845D01*
X170549636Y-138935679D01*
X170890611Y-138114519D01*
X170890614Y-138110619D01*
X176072613Y-138110619D01*
X176412155Y-138932372D01*
X177040321Y-139561636D01*
X177861481Y-139902611D01*
X178750619Y-139903387D01*
X179572372Y-139563845D01*
X180201636Y-138935679D01*
X180542611Y-138114519D01*
X180542614Y-138110619D01*
X185724613Y-138110619D01*
X186064155Y-138932372D01*
X186692321Y-139561636D01*
X187513481Y-139902611D01*
X188402619Y-139903387D01*
X189224372Y-139563845D01*
X189853636Y-138935679D01*
X190194611Y-138114519D01*
X190194614Y-138110619D01*
X195376613Y-138110619D01*
X195716155Y-138932372D01*
X196344321Y-139561636D01*
X197165481Y-139902611D01*
X198054619Y-139903387D01*
X198876372Y-139563845D01*
X199505636Y-138935679D01*
X199846611Y-138114519D01*
X199847387Y-137225381D01*
X199507845Y-136403628D01*
X198879679Y-135774364D01*
X198458053Y-135599290D01*
X198480371Y-135590068D01*
X198912551Y-135158643D01*
X199146733Y-134594670D01*
X199147265Y-133984009D01*
X198914068Y-133419629D01*
X198482643Y-132987449D01*
X197918670Y-132753267D01*
X197308009Y-132752735D01*
X196743629Y-132985932D01*
X196311449Y-133417357D01*
X196077267Y-133981330D01*
X196076735Y-134591991D01*
X196309932Y-135156371D01*
X196741357Y-135588551D01*
X196766607Y-135599036D01*
X196347628Y-135772155D01*
X195718364Y-136400321D01*
X195377389Y-137221481D01*
X195376613Y-138110619D01*
X190194614Y-138110619D01*
X190195387Y-137225381D01*
X189855845Y-136403628D01*
X189227679Y-135774364D01*
X188806053Y-135599290D01*
X188828371Y-135590068D01*
X189260551Y-135158643D01*
X189494733Y-134594670D01*
X189495265Y-133984009D01*
X189262068Y-133419629D01*
X188830643Y-132987449D01*
X188266670Y-132753267D01*
X187656009Y-132752735D01*
X187091629Y-132985932D01*
X186659449Y-133417357D01*
X186425267Y-133981330D01*
X186424735Y-134591991D01*
X186657932Y-135156371D01*
X187089357Y-135588551D01*
X187114607Y-135599036D01*
X186695628Y-135772155D01*
X186066364Y-136400321D01*
X185725389Y-137221481D01*
X185724613Y-138110619D01*
X180542614Y-138110619D01*
X180543387Y-137225381D01*
X180203845Y-136403628D01*
X179575679Y-135774364D01*
X179154053Y-135599290D01*
X179176371Y-135590068D01*
X179608551Y-135158643D01*
X179842733Y-134594670D01*
X179843265Y-133984009D01*
X179610068Y-133419629D01*
X179178643Y-132987449D01*
X178614670Y-132753267D01*
X178004009Y-132752735D01*
X177439629Y-132985932D01*
X177007449Y-133417357D01*
X176773267Y-133981330D01*
X176772735Y-134591991D01*
X177005932Y-135156371D01*
X177437357Y-135588551D01*
X177462607Y-135599036D01*
X177043628Y-135772155D01*
X176414364Y-136400321D01*
X176073389Y-137221481D01*
X176072613Y-138110619D01*
X170890614Y-138110619D01*
X170891387Y-137225381D01*
X170551845Y-136403628D01*
X169923679Y-135774364D01*
X169502053Y-135599290D01*
X169524371Y-135590068D01*
X169956551Y-135158643D01*
X170190733Y-134594670D01*
X170191265Y-133984009D01*
X169958068Y-133419629D01*
X169526643Y-132987449D01*
X168962670Y-132753267D01*
X168352009Y-132752735D01*
X167787629Y-132985932D01*
X167355449Y-133417357D01*
X167121267Y-133981330D01*
X167120735Y-134591991D01*
X167353932Y-135156371D01*
X167785357Y-135588551D01*
X167810607Y-135599036D01*
X167391628Y-135772155D01*
X166783154Y-136379567D01*
X166782117Y-136377057D01*
X166519327Y-136113808D01*
X166175799Y-135971162D01*
X165803833Y-135970838D01*
X165460057Y-136112883D01*
X165196808Y-136375673D01*
X165054162Y-136719201D01*
X165054121Y-136766077D01*
X163563320Y-138256878D01*
X163517833Y-138256838D01*
X163174057Y-138398883D01*
X162910808Y-138661673D01*
X162768162Y-139005201D01*
X162767838Y-139377167D01*
X158421878Y-139377167D01*
X158373054Y-139131715D01*
X158051147Y-138649946D01*
X157721974Y-138430000D01*
X158051147Y-138210054D01*
X158373054Y-137728285D01*
X158486093Y-137160000D01*
X158373054Y-136591715D01*
X158367343Y-136583167D01*
X161370838Y-136583167D01*
X161512883Y-136926943D01*
X161775673Y-137190192D01*
X162119201Y-137332838D01*
X162491167Y-137333162D01*
X162834943Y-137191117D01*
X163098192Y-136928327D01*
X163240838Y-136584799D01*
X163240879Y-136537923D01*
X164096680Y-135682122D01*
X164142167Y-135682162D01*
X164485943Y-135540117D01*
X164749192Y-135277327D01*
X164891838Y-134933799D01*
X164892162Y-134561833D01*
X164750117Y-134218057D01*
X164487327Y-133954808D01*
X164143799Y-133812162D01*
X163771833Y-133811838D01*
X163428057Y-133953883D01*
X163164808Y-134216673D01*
X163022162Y-134560201D01*
X163022121Y-134607077D01*
X162166320Y-135462878D01*
X162120833Y-135462838D01*
X161777057Y-135604883D01*
X161513808Y-135867673D01*
X161371162Y-136211201D01*
X161370838Y-136583167D01*
X158367343Y-136583167D01*
X158051147Y-136109946D01*
X157721974Y-135890000D01*
X158051147Y-135670054D01*
X158373054Y-135188285D01*
X158486093Y-134620000D01*
X158373054Y-134051715D01*
X158051147Y-133569946D01*
X157721974Y-133350000D01*
X158051147Y-133130054D01*
X158373054Y-132648285D01*
X158486093Y-132080000D01*
X158444732Y-131872067D01*
X158554167Y-131872162D01*
X158897943Y-131730117D01*
X159161192Y-131467327D01*
X159303838Y-131123799D01*
X159303879Y-131076923D01*
X160207802Y-130173000D01*
X163712086Y-130173000D01*
X163272200Y-130354757D01*
X162868176Y-130758077D01*
X162649250Y-131285309D01*
X162648752Y-131856187D01*
X162866757Y-132383800D01*
X163270077Y-132787824D01*
X163797309Y-133006750D01*
X164368187Y-133007248D01*
X164895800Y-132789243D01*
X165299824Y-132385923D01*
X165348723Y-132268159D01*
X167755446Y-132268159D01*
X167841852Y-132524643D01*
X168415336Y-132734458D01*
X169025460Y-132708839D01*
X169470148Y-132524643D01*
X169556554Y-132268159D01*
X177407446Y-132268159D01*
X177493852Y-132524643D01*
X178067336Y-132734458D01*
X178677460Y-132708839D01*
X179122148Y-132524643D01*
X179208554Y-132268159D01*
X187059446Y-132268159D01*
X187145852Y-132524643D01*
X187719336Y-132734458D01*
X188329460Y-132708839D01*
X188774148Y-132524643D01*
X188860554Y-132268159D01*
X196711446Y-132268159D01*
X196797852Y-132524643D01*
X197371336Y-132734458D01*
X197981460Y-132708839D01*
X198426148Y-132524643D01*
X198512554Y-132268159D01*
X197612000Y-131367605D01*
X196711446Y-132268159D01*
X188860554Y-132268159D01*
X187960000Y-131367605D01*
X187059446Y-132268159D01*
X179208554Y-132268159D01*
X178308000Y-131367605D01*
X177407446Y-132268159D01*
X169556554Y-132268159D01*
X168656000Y-131367605D01*
X167755446Y-132268159D01*
X165348723Y-132268159D01*
X165518750Y-131858691D01*
X165519248Y-131287813D01*
X165301243Y-130760200D01*
X164897923Y-130356176D01*
X164456787Y-130173000D01*
X166950537Y-130173000D01*
X166982673Y-130205192D01*
X167326201Y-130347838D01*
X167396394Y-130347899D01*
X167319357Y-130373852D01*
X167109542Y-130947336D01*
X167135161Y-131557460D01*
X167319357Y-132002148D01*
X167575841Y-132088554D01*
X168476395Y-131188000D01*
X168835605Y-131188000D01*
X169736159Y-132088554D01*
X169992643Y-132002148D01*
X170202458Y-131428664D01*
X170182248Y-130947336D01*
X176761542Y-130947336D01*
X176787161Y-131557460D01*
X176971357Y-132002148D01*
X177227841Y-132088554D01*
X178128395Y-131188000D01*
X178487605Y-131188000D01*
X179388159Y-132088554D01*
X179644643Y-132002148D01*
X179854458Y-131428664D01*
X179834248Y-130947336D01*
X186413542Y-130947336D01*
X186439161Y-131557460D01*
X186623357Y-132002148D01*
X186879841Y-132088554D01*
X187780395Y-131188000D01*
X188139605Y-131188000D01*
X189040159Y-132088554D01*
X189296643Y-132002148D01*
X189506458Y-131428664D01*
X189486248Y-130947336D01*
X196065542Y-130947336D01*
X196091161Y-131557460D01*
X196275357Y-132002148D01*
X196531841Y-132088554D01*
X197432395Y-131188000D01*
X197791605Y-131188000D01*
X198692159Y-132088554D01*
X198948643Y-132002148D01*
X199158458Y-131428664D01*
X199132839Y-130818540D01*
X198948643Y-130373852D01*
X198692159Y-130287446D01*
X197791605Y-131188000D01*
X197432395Y-131188000D01*
X196531841Y-130287446D01*
X196275357Y-130373852D01*
X196065542Y-130947336D01*
X189486248Y-130947336D01*
X189480839Y-130818540D01*
X189296643Y-130373852D01*
X189040159Y-130287446D01*
X188139605Y-131188000D01*
X187780395Y-131188000D01*
X186879841Y-130287446D01*
X186623357Y-130373852D01*
X186413542Y-130947336D01*
X179834248Y-130947336D01*
X179828839Y-130818540D01*
X179644643Y-130373852D01*
X179388159Y-130287446D01*
X178487605Y-131188000D01*
X178128395Y-131188000D01*
X177227841Y-130287446D01*
X176971357Y-130373852D01*
X176761542Y-130947336D01*
X170182248Y-130947336D01*
X170176839Y-130818540D01*
X169992643Y-130373852D01*
X169736159Y-130287446D01*
X168835605Y-131188000D01*
X168476395Y-131188000D01*
X168462253Y-131173858D01*
X168641858Y-130994253D01*
X168656000Y-131008395D01*
X169556554Y-130107841D01*
X177407446Y-130107841D01*
X178308000Y-131008395D01*
X179208554Y-130107841D01*
X187059446Y-130107841D01*
X187960000Y-131008395D01*
X188860554Y-130107841D01*
X196711446Y-130107841D01*
X197612000Y-131008395D01*
X198512554Y-130107841D01*
X198426148Y-129851357D01*
X197852664Y-129641542D01*
X197242540Y-129667161D01*
X196797852Y-129851357D01*
X196711446Y-130107841D01*
X188860554Y-130107841D01*
X188774148Y-129851357D01*
X188200664Y-129641542D01*
X187590540Y-129667161D01*
X187145852Y-129851357D01*
X187059446Y-130107841D01*
X179208554Y-130107841D01*
X179122148Y-129851357D01*
X178548664Y-129641542D01*
X177938540Y-129667161D01*
X177493852Y-129851357D01*
X177407446Y-130107841D01*
X169556554Y-130107841D01*
X169470148Y-129851357D01*
X168896664Y-129641542D01*
X168422233Y-129661463D01*
X168447838Y-129599799D01*
X168448162Y-129227833D01*
X168314617Y-128904629D01*
X168447838Y-128583799D01*
X168448162Y-128211833D01*
X168306117Y-127868057D01*
X168043327Y-127604808D01*
X167699799Y-127462162D01*
X167327833Y-127461838D01*
X166984057Y-127603883D01*
X166950882Y-127637000D01*
X162487241Y-127637000D01*
X162328327Y-127477808D01*
X161984799Y-127335162D01*
X161612833Y-127334838D01*
X161269057Y-127476883D01*
X161005808Y-127739673D01*
X160863162Y-128083201D01*
X160862838Y-128455167D01*
X160944581Y-128653000D01*
X159893000Y-128653000D01*
X159674660Y-128696431D01*
X159602160Y-128710852D01*
X159355599Y-128875599D01*
X158435165Y-129796033D01*
X158486093Y-129540000D01*
X158373054Y-128971715D01*
X158051147Y-128489946D01*
X157721974Y-128270000D01*
X158051147Y-128050054D01*
X158373054Y-127568285D01*
X158486093Y-127000000D01*
X158441574Y-126776187D01*
X172808752Y-126776187D01*
X173026757Y-127303800D01*
X173430077Y-127707824D01*
X173957309Y-127926750D01*
X174528187Y-127927248D01*
X175055800Y-127709243D01*
X175265663Y-127499745D01*
X178415861Y-127499745D01*
X178489995Y-127745864D01*
X179027223Y-127938965D01*
X179597454Y-127911778D01*
X179998005Y-127745864D01*
X180072139Y-127499745D01*
X179244000Y-126671605D01*
X178415861Y-127499745D01*
X175265663Y-127499745D01*
X175459824Y-127305923D01*
X175678750Y-126778691D01*
X175679189Y-126275223D01*
X177797035Y-126275223D01*
X177824222Y-126845454D01*
X177990136Y-127246005D01*
X178236255Y-127320139D01*
X179064395Y-126492000D01*
X179423605Y-126492000D01*
X180251745Y-127320139D01*
X180497864Y-127246005D01*
X180623728Y-126895837D01*
X180603009Y-127000000D01*
X180735078Y-127663956D01*
X181111179Y-128226830D01*
X181674053Y-128602931D01*
X182338009Y-128735000D01*
X182405991Y-128735000D01*
X183069947Y-128602931D01*
X183632821Y-128226830D01*
X184008922Y-127663956D01*
X184140991Y-127000000D01*
X184008922Y-126336044D01*
X183632821Y-125773170D01*
X183448326Y-125649894D01*
X183691229Y-125549529D01*
X183691759Y-125549000D01*
X193443288Y-125549000D01*
X193375569Y-125648110D01*
X193324560Y-125900000D01*
X193324560Y-128100000D01*
X193368838Y-128335317D01*
X193507910Y-128551441D01*
X193720110Y-128696431D01*
X193972000Y-128747440D01*
X196172000Y-128747440D01*
X196407317Y-128703162D01*
X196623441Y-128564090D01*
X196768431Y-128351890D01*
X196819440Y-128100000D01*
X196819440Y-126019032D01*
X197644548Y-126741001D01*
X197717845Y-127109491D01*
X198050591Y-127607481D01*
X198548581Y-127940227D01*
X199136000Y-128057072D01*
X199723419Y-127940227D01*
X200221409Y-127607481D01*
X200554155Y-127109491D01*
X200671000Y-126522072D01*
X200671000Y-126461928D01*
X200554155Y-125874509D01*
X200221409Y-125376519D01*
X199983418Y-125217499D01*
X200373966Y-124859576D01*
X200627046Y-124316742D01*
X200506997Y-124079000D01*
X199263000Y-124079000D01*
X199263000Y-124099000D01*
X199009000Y-124099000D01*
X199009000Y-124079000D01*
X198989000Y-124079000D01*
X198989000Y-123825000D01*
X199009000Y-123825000D01*
X199009000Y-123805000D01*
X199263000Y-123805000D01*
X199263000Y-123825000D01*
X200506997Y-123825000D01*
X200627046Y-123587258D01*
X200373966Y-123044424D01*
X200239462Y-122921156D01*
X200271317Y-122915162D01*
X200487441Y-122776090D01*
X200632431Y-122563890D01*
X200683440Y-122312000D01*
X200683440Y-120512000D01*
X200639162Y-120276683D01*
X200500090Y-120060559D01*
X200287890Y-119915569D01*
X200036000Y-119864560D01*
X198236000Y-119864560D01*
X198000683Y-119908838D01*
X197784559Y-120047910D01*
X197639569Y-120260110D01*
X197588560Y-120512000D01*
X197588560Y-122312000D01*
X197632838Y-122547317D01*
X197771910Y-122763441D01*
X197984110Y-122908431D01*
X198035146Y-122918766D01*
X197898034Y-123044424D01*
X197880696Y-123081613D01*
X197789686Y-122990445D01*
X197427788Y-122840172D01*
X197035931Y-122839830D01*
X196673771Y-122989471D01*
X196673241Y-122990000D01*
X196601824Y-122990000D01*
X196623441Y-122976090D01*
X196768431Y-122763890D01*
X196819440Y-122512000D01*
X196819440Y-120739362D01*
X198767680Y-118791122D01*
X198813167Y-118791162D01*
X199156943Y-118649117D01*
X199420192Y-118386327D01*
X199562838Y-118042799D01*
X199563162Y-117670833D01*
X199421117Y-117327057D01*
X199158327Y-117063808D01*
X198814799Y-116921162D01*
X198442833Y-116920838D01*
X198099057Y-117062883D01*
X197835808Y-117325673D01*
X197693162Y-117669201D01*
X197693121Y-117716077D01*
X195744638Y-119664560D01*
X193972000Y-119664560D01*
X193736683Y-119708838D01*
X193520559Y-119847910D01*
X193375569Y-120060110D01*
X193324560Y-120312000D01*
X193324560Y-122512000D01*
X193368838Y-122747317D01*
X193507910Y-122963441D01*
X193720110Y-123108431D01*
X193859356Y-123136629D01*
X193729445Y-123266314D01*
X193579172Y-123628212D01*
X193578953Y-123879000D01*
X183691614Y-123879000D01*
X183330788Y-123729172D01*
X182938931Y-123728830D01*
X182576771Y-123878471D01*
X182299445Y-124155314D01*
X182149172Y-124517212D01*
X182148830Y-124909069D01*
X182298471Y-125271229D01*
X182299833Y-125272594D01*
X181674053Y-125397069D01*
X181111179Y-125773170D01*
X180735078Y-126336044D01*
X180685159Y-126587003D01*
X180663778Y-126138546D01*
X180497864Y-125737995D01*
X180251745Y-125663861D01*
X179423605Y-126492000D01*
X179064395Y-126492000D01*
X178236255Y-125663861D01*
X177990136Y-125737995D01*
X177797035Y-126275223D01*
X175679189Y-126275223D01*
X175679248Y-126207813D01*
X175461243Y-125680200D01*
X175265640Y-125484255D01*
X178415861Y-125484255D01*
X179244000Y-126312395D01*
X180072139Y-125484255D01*
X179998005Y-125238136D01*
X179460777Y-125045035D01*
X178890546Y-125072222D01*
X178489995Y-125238136D01*
X178415861Y-125484255D01*
X175265640Y-125484255D01*
X175057923Y-125276176D01*
X174530691Y-125057250D01*
X173959813Y-125056752D01*
X173432200Y-125274757D01*
X173028176Y-125678077D01*
X172809250Y-126205309D01*
X172808752Y-126776187D01*
X158441574Y-126776187D01*
X158373054Y-126431715D01*
X158051147Y-125949946D01*
X157721974Y-125730000D01*
X158051147Y-125510054D01*
X158373054Y-125028285D01*
X158486093Y-124460000D01*
X158373054Y-123891715D01*
X158051147Y-123409946D01*
X157721974Y-123190000D01*
X158051147Y-122970054D01*
X158373054Y-122488285D01*
X158486093Y-121920000D01*
X158373054Y-121351715D01*
X158051147Y-120869946D01*
X157721974Y-120650000D01*
X158051147Y-120430054D01*
X158373054Y-119948285D01*
X158486093Y-119380000D01*
X158373054Y-118811715D01*
X158051147Y-118329946D01*
X157721974Y-118110000D01*
X157810170Y-118051069D01*
X161066830Y-118051069D01*
X161216471Y-118413229D01*
X161217000Y-118413759D01*
X161217000Y-122632386D01*
X161067172Y-122993212D01*
X161066830Y-123385069D01*
X161216471Y-123747229D01*
X161493314Y-124024555D01*
X161855212Y-124174828D01*
X162247069Y-124175170D01*
X162264421Y-124168000D01*
X167208560Y-124168000D01*
X167208560Y-125768000D01*
X167252838Y-126003317D01*
X167391910Y-126219441D01*
X167604110Y-126364431D01*
X167856000Y-126415440D01*
X169456000Y-126415440D01*
X169691317Y-126371162D01*
X169907441Y-126232090D01*
X169911977Y-126225452D01*
X170439223Y-126414965D01*
X171009454Y-126387778D01*
X171410005Y-126221864D01*
X171484139Y-125975745D01*
X170656000Y-125147605D01*
X170641858Y-125161748D01*
X170462253Y-124982143D01*
X170476395Y-124968000D01*
X170835605Y-124968000D01*
X171663745Y-125796139D01*
X171909864Y-125722005D01*
X172102965Y-125184777D01*
X172075778Y-124614546D01*
X171909864Y-124213995D01*
X171663745Y-124139861D01*
X170835605Y-124968000D01*
X170476395Y-124968000D01*
X170462253Y-124953858D01*
X170641858Y-124774252D01*
X170656000Y-124788395D01*
X171484139Y-123960255D01*
X171410005Y-123714136D01*
X170872777Y-123521035D01*
X170302546Y-123548222D01*
X169911053Y-123710384D01*
X169707890Y-123571569D01*
X169456000Y-123520560D01*
X167856000Y-123520560D01*
X167620683Y-123564838D01*
X167404559Y-123703910D01*
X167259569Y-123916110D01*
X167208560Y-124168000D01*
X162264421Y-124168000D01*
X162609229Y-124025529D01*
X162886555Y-123748686D01*
X163036828Y-123386788D01*
X163037170Y-122994931D01*
X162887529Y-122632771D01*
X162887000Y-122632241D01*
X162887000Y-122181977D01*
X163069302Y-122454811D01*
X163534849Y-122765880D01*
X164084000Y-122875113D01*
X164633151Y-122765880D01*
X164846882Y-122623069D01*
X170591830Y-122623069D01*
X170741471Y-122985229D01*
X171018314Y-123262555D01*
X171380212Y-123412828D01*
X171380960Y-123412829D01*
X171494565Y-123526434D01*
X171630012Y-123616936D01*
X171765459Y-123707439D01*
X172085000Y-123771000D01*
X173940386Y-123771000D01*
X174301212Y-123920828D01*
X174693069Y-123921170D01*
X175055229Y-123771529D01*
X175332555Y-123494686D01*
X175482828Y-123132788D01*
X175483170Y-122740931D01*
X175333529Y-122378771D01*
X175056686Y-122101445D01*
X175019633Y-122086059D01*
X175072139Y-121911745D01*
X174244000Y-121083605D01*
X173415861Y-121911745D01*
X173472867Y-122101000D01*
X172507657Y-122101000D01*
X172412529Y-121870771D01*
X172135686Y-121593445D01*
X171773788Y-121443172D01*
X171381931Y-121442830D01*
X171019771Y-121592471D01*
X170742445Y-121869314D01*
X170592172Y-122231212D01*
X170591830Y-122623069D01*
X164846882Y-122623069D01*
X165098698Y-122454811D01*
X165409767Y-121989264D01*
X165519000Y-121440113D01*
X165519000Y-121383887D01*
X165409767Y-120834736D01*
X165311202Y-120687223D01*
X172797035Y-120687223D01*
X172824222Y-121257454D01*
X172990136Y-121658005D01*
X173236255Y-121732139D01*
X174064395Y-120904000D01*
X174423605Y-120904000D01*
X175251745Y-121732139D01*
X175497864Y-121658005D01*
X175666735Y-121188187D01*
X177808752Y-121188187D01*
X178026757Y-121715800D01*
X178430077Y-122119824D01*
X178957309Y-122338750D01*
X179528187Y-122339248D01*
X180055800Y-122121243D01*
X180459824Y-121717923D01*
X180617863Y-121337322D01*
X180603009Y-121412000D01*
X180735078Y-122075956D01*
X181111179Y-122638830D01*
X181674053Y-123014931D01*
X182338009Y-123147000D01*
X182405991Y-123147000D01*
X183069947Y-123014931D01*
X183632821Y-122638830D01*
X184008922Y-122075956D01*
X184140991Y-121412000D01*
X184008922Y-120748044D01*
X183632821Y-120185170D01*
X183069947Y-119809069D01*
X182405991Y-119677000D01*
X182338009Y-119677000D01*
X181674053Y-119809069D01*
X181111179Y-120185170D01*
X180735078Y-120748044D01*
X180678890Y-121030522D01*
X180679248Y-120619813D01*
X180461243Y-120092200D01*
X180057923Y-119688176D01*
X179530691Y-119469250D01*
X178959813Y-119468752D01*
X178432200Y-119686757D01*
X178028176Y-120090077D01*
X177809250Y-120617309D01*
X177808752Y-121188187D01*
X175666735Y-121188187D01*
X175690965Y-121120777D01*
X175663778Y-120550546D01*
X175497864Y-120149995D01*
X175251745Y-120075861D01*
X174423605Y-120904000D01*
X174064395Y-120904000D01*
X173236255Y-120075861D01*
X172990136Y-120149995D01*
X172797035Y-120687223D01*
X165311202Y-120687223D01*
X165098698Y-120369189D01*
X164762290Y-120144408D01*
X164895800Y-120089243D01*
X165089124Y-119896255D01*
X173415861Y-119896255D01*
X174244000Y-120724395D01*
X175072139Y-119896255D01*
X174998005Y-119650136D01*
X174460777Y-119457035D01*
X173890546Y-119484222D01*
X173489995Y-119650136D01*
X173415861Y-119896255D01*
X165089124Y-119896255D01*
X165299824Y-119685923D01*
X165518750Y-119158691D01*
X165519248Y-118587813D01*
X165301243Y-118060200D01*
X164897923Y-117656176D01*
X164370691Y-117437250D01*
X163799813Y-117436752D01*
X163272200Y-117654757D01*
X163036970Y-117889577D01*
X163037170Y-117660931D01*
X162887529Y-117298771D01*
X162610686Y-117021445D01*
X162248788Y-116871172D01*
X161856931Y-116870830D01*
X161494771Y-117020471D01*
X161217445Y-117297314D01*
X161067172Y-117659212D01*
X161066830Y-118051069D01*
X157810170Y-118051069D01*
X158051147Y-117890054D01*
X158373054Y-117408285D01*
X158486093Y-116840000D01*
X158428011Y-116548000D01*
X167208560Y-116548000D01*
X167208560Y-118148000D01*
X167252838Y-118383317D01*
X167391910Y-118599441D01*
X167604110Y-118744431D01*
X167856000Y-118795440D01*
X169456000Y-118795440D01*
X169691317Y-118751162D01*
X169907441Y-118612090D01*
X169911977Y-118605452D01*
X170439223Y-118794965D01*
X171009454Y-118767778D01*
X171410005Y-118601864D01*
X171484139Y-118355745D01*
X170656000Y-117527605D01*
X170641858Y-117541748D01*
X170462253Y-117362143D01*
X170476395Y-117348000D01*
X170835605Y-117348000D01*
X171663745Y-118176139D01*
X171909864Y-118102005D01*
X172102965Y-117564777D01*
X172075778Y-116994546D01*
X171909864Y-116593995D01*
X171663745Y-116519861D01*
X170835605Y-117348000D01*
X170476395Y-117348000D01*
X170462253Y-117333858D01*
X170641858Y-117154252D01*
X170656000Y-117168395D01*
X171484139Y-116340255D01*
X171410005Y-116094136D01*
X170872777Y-115901035D01*
X170302546Y-115928222D01*
X169911053Y-116090384D01*
X169707890Y-115951569D01*
X169456000Y-115900560D01*
X167856000Y-115900560D01*
X167620683Y-115944838D01*
X167404559Y-116083910D01*
X167259569Y-116296110D01*
X167208560Y-116548000D01*
X158428011Y-116548000D01*
X158373054Y-116271715D01*
X158051147Y-115789946D01*
X157721974Y-115570000D01*
X158051147Y-115350054D01*
X158373054Y-114868285D01*
X158486093Y-114300000D01*
X158373054Y-113731715D01*
X158051147Y-113249946D01*
X157721974Y-113030000D01*
X158051147Y-112810054D01*
X158373054Y-112328285D01*
X158486093Y-111760000D01*
X158385046Y-111252000D01*
X177288041Y-111252000D01*
X177402115Y-111825489D01*
X177726971Y-112311670D01*
X178041752Y-112522000D01*
X177726971Y-112732330D01*
X177402115Y-113218511D01*
X177288041Y-113792000D01*
X177402115Y-114365489D01*
X177726971Y-114851670D01*
X178213152Y-115176526D01*
X178786641Y-115290600D01*
X178845359Y-115290600D01*
X179418848Y-115176526D01*
X179905029Y-114851670D01*
X180086000Y-114580828D01*
X180266971Y-114851670D01*
X180753152Y-115176526D01*
X181326641Y-115290600D01*
X181385359Y-115290600D01*
X181958848Y-115176526D01*
X182445029Y-114851670D01*
X182626000Y-114580828D01*
X182806971Y-114851670D01*
X183293152Y-115176526D01*
X183866641Y-115290600D01*
X183925359Y-115290600D01*
X184498848Y-115176526D01*
X184985029Y-114851670D01*
X185166000Y-114580828D01*
X185346971Y-114851670D01*
X185833152Y-115176526D01*
X186406641Y-115290600D01*
X186465359Y-115290600D01*
X187038848Y-115176526D01*
X187525029Y-114851670D01*
X187705992Y-114580839D01*
X188087510Y-114998821D01*
X188616973Y-115246968D01*
X188849000Y-115126469D01*
X188849000Y-113919000D01*
X189103000Y-113919000D01*
X189103000Y-115126469D01*
X189335027Y-115246968D01*
X189864490Y-114998821D01*
X190246000Y-114580848D01*
X190627510Y-114998821D01*
X191156973Y-115246968D01*
X191389000Y-115126469D01*
X191389000Y-113919000D01*
X191643000Y-113919000D01*
X191643000Y-115126469D01*
X191875027Y-115246968D01*
X192404490Y-114998821D01*
X192786000Y-114580848D01*
X193167510Y-114998821D01*
X193696973Y-115246968D01*
X193929000Y-115126469D01*
X193929000Y-113919000D01*
X191643000Y-113919000D01*
X191389000Y-113919000D01*
X189103000Y-113919000D01*
X188849000Y-113919000D01*
X188829000Y-113919000D01*
X188829000Y-113665000D01*
X188849000Y-113665000D01*
X188849000Y-111379000D01*
X189103000Y-111379000D01*
X189103000Y-113665000D01*
X191389000Y-113665000D01*
X191389000Y-111379000D01*
X191643000Y-111379000D01*
X191643000Y-113665000D01*
X193929000Y-113665000D01*
X193929000Y-111379000D01*
X191643000Y-111379000D01*
X191389000Y-111379000D01*
X189103000Y-111379000D01*
X188849000Y-111379000D01*
X188829000Y-111379000D01*
X188829000Y-111125000D01*
X188849000Y-111125000D01*
X188849000Y-109917531D01*
X189103000Y-109917531D01*
X189103000Y-111125000D01*
X191389000Y-111125000D01*
X191389000Y-109917531D01*
X191643000Y-109917531D01*
X191643000Y-111125000D01*
X193929000Y-111125000D01*
X193929000Y-109917531D01*
X194183000Y-109917531D01*
X194183000Y-111125000D01*
X194203000Y-111125000D01*
X194203000Y-111379000D01*
X194183000Y-111379000D01*
X194183000Y-113665000D01*
X194203000Y-113665000D01*
X194203000Y-113919000D01*
X194183000Y-113919000D01*
X194183000Y-115126469D01*
X194415027Y-115246968D01*
X194944490Y-114998821D01*
X195326008Y-114580839D01*
X195506971Y-114851670D01*
X195993152Y-115176526D01*
X196566641Y-115290600D01*
X196625359Y-115290600D01*
X197198848Y-115176526D01*
X197685029Y-114851670D01*
X198009885Y-114365489D01*
X198123959Y-113792000D01*
X198009885Y-113218511D01*
X197685029Y-112732330D01*
X197671358Y-112723195D01*
X197694917Y-112718762D01*
X197911041Y-112579690D01*
X198056031Y-112367490D01*
X198107040Y-112115600D01*
X198107040Y-110388400D01*
X198062762Y-110153083D01*
X197923690Y-109936959D01*
X197711490Y-109791969D01*
X197459600Y-109740960D01*
X195732400Y-109740960D01*
X195497083Y-109785238D01*
X195280959Y-109924310D01*
X195135969Y-110136510D01*
X195116338Y-110233451D01*
X194944490Y-110045179D01*
X194415027Y-109797032D01*
X194183000Y-109917531D01*
X193929000Y-109917531D01*
X193696973Y-109797032D01*
X193167510Y-110045179D01*
X192786000Y-110463152D01*
X192404490Y-110045179D01*
X191875027Y-109797032D01*
X191643000Y-109917531D01*
X191389000Y-109917531D01*
X191156973Y-109797032D01*
X190627510Y-110045179D01*
X190246000Y-110463152D01*
X189864490Y-110045179D01*
X189335027Y-109797032D01*
X189103000Y-109917531D01*
X188849000Y-109917531D01*
X188616973Y-109797032D01*
X188087510Y-110045179D01*
X187705992Y-110463161D01*
X187525029Y-110192330D01*
X187038848Y-109867474D01*
X186465359Y-109753400D01*
X186406641Y-109753400D01*
X185833152Y-109867474D01*
X185346971Y-110192330D01*
X185166000Y-110463172D01*
X184985029Y-110192330D01*
X184498848Y-109867474D01*
X183925359Y-109753400D01*
X183866641Y-109753400D01*
X183293152Y-109867474D01*
X182806971Y-110192330D01*
X182626000Y-110463172D01*
X182445029Y-110192330D01*
X181958848Y-109867474D01*
X181385359Y-109753400D01*
X181326641Y-109753400D01*
X180753152Y-109867474D01*
X180266971Y-110192330D01*
X180086000Y-110463172D01*
X179905029Y-110192330D01*
X179418848Y-109867474D01*
X178845359Y-109753400D01*
X178786641Y-109753400D01*
X178213152Y-109867474D01*
X177726971Y-110192330D01*
X177402115Y-110678511D01*
X177288041Y-111252000D01*
X158385046Y-111252000D01*
X158373054Y-111191715D01*
X158051147Y-110709946D01*
X157710447Y-110482298D01*
X157853358Y-110415183D01*
X158243645Y-109986924D01*
X158413476Y-109576890D01*
X158292155Y-109347000D01*
X157099000Y-109347000D01*
X157099000Y-109367000D01*
X156845000Y-109367000D01*
X156845000Y-109347000D01*
X156825000Y-109347000D01*
X156825000Y-109093000D01*
X156845000Y-109093000D01*
X156845000Y-109073000D01*
X157099000Y-109073000D01*
X157099000Y-109093000D01*
X158292155Y-109093000D01*
X158413476Y-108863110D01*
X158243645Y-108453076D01*
X158014831Y-108202000D01*
X162744853Y-108202000D01*
X162649000Y-108683887D01*
X162649000Y-108740113D01*
X162758233Y-109289264D01*
X163069302Y-109754811D01*
X163534849Y-110065880D01*
X164084000Y-110175113D01*
X164633151Y-110065880D01*
X165098698Y-109754811D01*
X165409767Y-109289264D01*
X165519000Y-108740113D01*
X165519000Y-108683887D01*
X165423147Y-108202000D01*
X168116441Y-108202000D01*
X168487000Y-108526239D01*
X168624883Y-108859943D01*
X168887673Y-109123192D01*
X169231201Y-109265838D01*
X169603167Y-109266162D01*
X169946943Y-109124117D01*
X170210192Y-108861327D01*
X170352838Y-108517799D01*
X170353162Y-108145833D01*
X170211117Y-107802057D01*
X169948327Y-107538808D01*
X169604799Y-107396162D01*
X169503643Y-107396074D01*
X169496702Y-107390000D01*
X202342091Y-107390000D01*
X202490000Y-107538305D01*
X202490000Y-107538305D01*
G37*
X202490000Y-107538305D02*
X202490000Y-144048394D01*
X202468394Y-144070000D01*
X198044902Y-144070000D01*
X198480371Y-143890068D01*
X198912551Y-143458643D01*
X199146733Y-142894670D01*
X199147265Y-142284009D01*
X198914068Y-141719629D01*
X198482643Y-141287449D01*
X197918670Y-141053267D01*
X197308009Y-141052735D01*
X196743629Y-141285932D01*
X196311449Y-141717357D01*
X196077267Y-142281330D01*
X196076735Y-142891991D01*
X196309932Y-143456371D01*
X196741357Y-143888551D01*
X197178335Y-144070000D01*
X188392902Y-144070000D01*
X188828371Y-143890068D01*
X189260551Y-143458643D01*
X189494733Y-142894670D01*
X189495265Y-142284009D01*
X189262068Y-141719629D01*
X188830643Y-141287449D01*
X188266670Y-141053267D01*
X187656009Y-141052735D01*
X187091629Y-141285932D01*
X186659449Y-141717357D01*
X186425267Y-142281330D01*
X186424735Y-142891991D01*
X186657932Y-143456371D01*
X187089357Y-143888551D01*
X187526335Y-144070000D01*
X178740902Y-144070000D01*
X179176371Y-143890068D01*
X179608551Y-143458643D01*
X179842733Y-142894670D01*
X179843265Y-142284009D01*
X179610068Y-141719629D01*
X179178643Y-141287449D01*
X178614670Y-141053267D01*
X178004009Y-141052735D01*
X177439629Y-141285932D01*
X177007449Y-141717357D01*
X176773267Y-142281330D01*
X176772735Y-142891991D01*
X177005932Y-143456371D01*
X177437357Y-143888551D01*
X177874335Y-144070000D01*
X169088902Y-144070000D01*
X169524371Y-143890068D01*
X169956551Y-143458643D01*
X170190733Y-142894670D01*
X170191265Y-142284009D01*
X169958068Y-141719629D01*
X169526643Y-141287449D01*
X168962670Y-141053267D01*
X168352009Y-141052735D01*
X167787629Y-141285932D01*
X167355449Y-141717357D01*
X167121267Y-142281330D01*
X167120735Y-142891991D01*
X167353932Y-143456371D01*
X167785357Y-143888551D01*
X168222335Y-144070000D01*
X155650000Y-144070000D01*
X155650000Y-143529149D01*
X155657910Y-143541441D01*
X155870110Y-143686431D01*
X156122000Y-143737440D01*
X157822000Y-143737440D01*
X158057317Y-143693162D01*
X158273441Y-143554090D01*
X158418431Y-143341890D01*
X158469440Y-143090000D01*
X158469440Y-141390000D01*
X158425162Y-141154683D01*
X158286090Y-140938559D01*
X158073890Y-140793569D01*
X158006459Y-140779914D01*
X158051147Y-140750054D01*
X158373054Y-140268285D01*
X158486093Y-139700000D01*
X158421878Y-139377167D01*
X162767838Y-139377167D01*
X162909883Y-139720943D01*
X163172673Y-139984192D01*
X163516201Y-140126838D01*
X163888167Y-140127162D01*
X164231943Y-139985117D01*
X164495192Y-139722327D01*
X164637838Y-139378799D01*
X164637879Y-139331923D01*
X166128680Y-137841122D01*
X166174167Y-137841162D01*
X166420937Y-137739199D01*
X166420613Y-138110619D01*
X166760155Y-138932372D01*
X167388321Y-139561636D01*
X168209481Y-139902611D01*
X169098619Y-139903387D01*
X169920372Y-139563845D01*
X170549636Y-138935679D01*
X170890611Y-138114519D01*
X170890614Y-138110619D01*
X176072613Y-138110619D01*
X176412155Y-138932372D01*
X177040321Y-139561636D01*
X177861481Y-139902611D01*
X178750619Y-139903387D01*
X179572372Y-139563845D01*
X180201636Y-138935679D01*
X180542611Y-138114519D01*
X180542614Y-138110619D01*
X185724613Y-138110619D01*
X186064155Y-138932372D01*
X186692321Y-139561636D01*
X187513481Y-139902611D01*
X188402619Y-139903387D01*
X189224372Y-139563845D01*
X189853636Y-138935679D01*
X190194611Y-138114519D01*
X190194614Y-138110619D01*
X195376613Y-138110619D01*
X195716155Y-138932372D01*
X196344321Y-139561636D01*
X197165481Y-139902611D01*
X198054619Y-139903387D01*
X198876372Y-139563845D01*
X199505636Y-138935679D01*
X199846611Y-138114519D01*
X199847387Y-137225381D01*
X199507845Y-136403628D01*
X198879679Y-135774364D01*
X198458053Y-135599290D01*
X198480371Y-135590068D01*
X198912551Y-135158643D01*
X199146733Y-134594670D01*
X199147265Y-133984009D01*
X198914068Y-133419629D01*
X198482643Y-132987449D01*
X197918670Y-132753267D01*
X197308009Y-132752735D01*
X196743629Y-132985932D01*
X196311449Y-133417357D01*
X196077267Y-133981330D01*
X196076735Y-134591991D01*
X196309932Y-135156371D01*
X196741357Y-135588551D01*
X196766607Y-135599036D01*
X196347628Y-135772155D01*
X195718364Y-136400321D01*
X195377389Y-137221481D01*
X195376613Y-138110619D01*
X190194614Y-138110619D01*
X190195387Y-137225381D01*
X189855845Y-136403628D01*
X189227679Y-135774364D01*
X188806053Y-135599290D01*
X188828371Y-135590068D01*
X189260551Y-135158643D01*
X189494733Y-134594670D01*
X189495265Y-133984009D01*
X189262068Y-133419629D01*
X188830643Y-132987449D01*
X188266670Y-132753267D01*
X187656009Y-132752735D01*
X187091629Y-132985932D01*
X186659449Y-133417357D01*
X186425267Y-133981330D01*
X186424735Y-134591991D01*
X186657932Y-135156371D01*
X187089357Y-135588551D01*
X187114607Y-135599036D01*
X186695628Y-135772155D01*
X186066364Y-136400321D01*
X185725389Y-137221481D01*
X185724613Y-138110619D01*
X180542614Y-138110619D01*
X180543387Y-137225381D01*
X180203845Y-136403628D01*
X179575679Y-135774364D01*
X179154053Y-135599290D01*
X179176371Y-135590068D01*
X179608551Y-135158643D01*
X179842733Y-134594670D01*
X179843265Y-133984009D01*
X179610068Y-133419629D01*
X179178643Y-132987449D01*
X178614670Y-132753267D01*
X178004009Y-132752735D01*
X177439629Y-132985932D01*
X177007449Y-133417357D01*
X176773267Y-133981330D01*
X176772735Y-134591991D01*
X177005932Y-135156371D01*
X177437357Y-135588551D01*
X177462607Y-135599036D01*
X177043628Y-135772155D01*
X176414364Y-136400321D01*
X176073389Y-137221481D01*
X176072613Y-138110619D01*
X170890614Y-138110619D01*
X170891387Y-137225381D01*
X170551845Y-136403628D01*
X169923679Y-135774364D01*
X169502053Y-135599290D01*
X169524371Y-135590068D01*
X169956551Y-135158643D01*
X170190733Y-134594670D01*
X170191265Y-133984009D01*
X169958068Y-133419629D01*
X169526643Y-132987449D01*
X168962670Y-132753267D01*
X168352009Y-132752735D01*
X167787629Y-132985932D01*
X167355449Y-133417357D01*
X167121267Y-133981330D01*
X167120735Y-134591991D01*
X167353932Y-135156371D01*
X167785357Y-135588551D01*
X167810607Y-135599036D01*
X167391628Y-135772155D01*
X166783154Y-136379567D01*
X166782117Y-136377057D01*
X166519327Y-136113808D01*
X166175799Y-135971162D01*
X165803833Y-135970838D01*
X165460057Y-136112883D01*
X165196808Y-136375673D01*
X165054162Y-136719201D01*
X165054121Y-136766077D01*
X163563320Y-138256878D01*
X163517833Y-138256838D01*
X163174057Y-138398883D01*
X162910808Y-138661673D01*
X162768162Y-139005201D01*
X162767838Y-139377167D01*
X158421878Y-139377167D01*
X158373054Y-139131715D01*
X158051147Y-138649946D01*
X157721974Y-138430000D01*
X158051147Y-138210054D01*
X158373054Y-137728285D01*
X158486093Y-137160000D01*
X158373054Y-136591715D01*
X158367343Y-136583167D01*
X161370838Y-136583167D01*
X161512883Y-136926943D01*
X161775673Y-137190192D01*
X162119201Y-137332838D01*
X162491167Y-137333162D01*
X162834943Y-137191117D01*
X163098192Y-136928327D01*
X163240838Y-136584799D01*
X163240879Y-136537923D01*
X164096680Y-135682122D01*
X164142167Y-135682162D01*
X164485943Y-135540117D01*
X164749192Y-135277327D01*
X164891838Y-134933799D01*
X164892162Y-134561833D01*
X164750117Y-134218057D01*
X164487327Y-133954808D01*
X164143799Y-133812162D01*
X163771833Y-133811838D01*
X163428057Y-133953883D01*
X163164808Y-134216673D01*
X163022162Y-134560201D01*
X163022121Y-134607077D01*
X162166320Y-135462878D01*
X162120833Y-135462838D01*
X161777057Y-135604883D01*
X161513808Y-135867673D01*
X161371162Y-136211201D01*
X161370838Y-136583167D01*
X158367343Y-136583167D01*
X158051147Y-136109946D01*
X157721974Y-135890000D01*
X158051147Y-135670054D01*
X158373054Y-135188285D01*
X158486093Y-134620000D01*
X158373054Y-134051715D01*
X158051147Y-133569946D01*
X157721974Y-133350000D01*
X158051147Y-133130054D01*
X158373054Y-132648285D01*
X158486093Y-132080000D01*
X158444732Y-131872067D01*
X158554167Y-131872162D01*
X158897943Y-131730117D01*
X159161192Y-131467327D01*
X159303838Y-131123799D01*
X159303879Y-131076923D01*
X160207802Y-130173000D01*
X163712086Y-130173000D01*
X163272200Y-130354757D01*
X162868176Y-130758077D01*
X162649250Y-131285309D01*
X162648752Y-131856187D01*
X162866757Y-132383800D01*
X163270077Y-132787824D01*
X163797309Y-133006750D01*
X164368187Y-133007248D01*
X164895800Y-132789243D01*
X165299824Y-132385923D01*
X165348723Y-132268159D01*
X167755446Y-132268159D01*
X167841852Y-132524643D01*
X168415336Y-132734458D01*
X169025460Y-132708839D01*
X169470148Y-132524643D01*
X169556554Y-132268159D01*
X177407446Y-132268159D01*
X177493852Y-132524643D01*
X178067336Y-132734458D01*
X178677460Y-132708839D01*
X179122148Y-132524643D01*
X179208554Y-132268159D01*
X187059446Y-132268159D01*
X187145852Y-132524643D01*
X187719336Y-132734458D01*
X188329460Y-132708839D01*
X188774148Y-132524643D01*
X188860554Y-132268159D01*
X196711446Y-132268159D01*
X196797852Y-132524643D01*
X197371336Y-132734458D01*
X197981460Y-132708839D01*
X198426148Y-132524643D01*
X198512554Y-132268159D01*
X197612000Y-131367605D01*
X196711446Y-132268159D01*
X188860554Y-132268159D01*
X187960000Y-131367605D01*
X187059446Y-132268159D01*
X179208554Y-132268159D01*
X178308000Y-131367605D01*
X177407446Y-132268159D01*
X169556554Y-132268159D01*
X168656000Y-131367605D01*
X167755446Y-132268159D01*
X165348723Y-132268159D01*
X165518750Y-131858691D01*
X165519248Y-131287813D01*
X165301243Y-130760200D01*
X164897923Y-130356176D01*
X164456787Y-130173000D01*
X166950537Y-130173000D01*
X166982673Y-130205192D01*
X167326201Y-130347838D01*
X167396394Y-130347899D01*
X167319357Y-130373852D01*
X167109542Y-130947336D01*
X167135161Y-131557460D01*
X167319357Y-132002148D01*
X167575841Y-132088554D01*
X168476395Y-131188000D01*
X168835605Y-131188000D01*
X169736159Y-132088554D01*
X169992643Y-132002148D01*
X170202458Y-131428664D01*
X170182248Y-130947336D01*
X176761542Y-130947336D01*
X176787161Y-131557460D01*
X176971357Y-132002148D01*
X177227841Y-132088554D01*
X178128395Y-131188000D01*
X178487605Y-131188000D01*
X179388159Y-132088554D01*
X179644643Y-132002148D01*
X179854458Y-131428664D01*
X179834248Y-130947336D01*
X186413542Y-130947336D01*
X186439161Y-131557460D01*
X186623357Y-132002148D01*
X186879841Y-132088554D01*
X187780395Y-131188000D01*
X188139605Y-131188000D01*
X189040159Y-132088554D01*
X189296643Y-132002148D01*
X189506458Y-131428664D01*
X189486248Y-130947336D01*
X196065542Y-130947336D01*
X196091161Y-131557460D01*
X196275357Y-132002148D01*
X196531841Y-132088554D01*
X197432395Y-131188000D01*
X197791605Y-131188000D01*
X198692159Y-132088554D01*
X198948643Y-132002148D01*
X199158458Y-131428664D01*
X199132839Y-130818540D01*
X198948643Y-130373852D01*
X198692159Y-130287446D01*
X197791605Y-131188000D01*
X197432395Y-131188000D01*
X196531841Y-130287446D01*
X196275357Y-130373852D01*
X196065542Y-130947336D01*
X189486248Y-130947336D01*
X189480839Y-130818540D01*
X189296643Y-130373852D01*
X189040159Y-130287446D01*
X188139605Y-131188000D01*
X187780395Y-131188000D01*
X186879841Y-130287446D01*
X186623357Y-130373852D01*
X186413542Y-130947336D01*
X179834248Y-130947336D01*
X179828839Y-130818540D01*
X179644643Y-130373852D01*
X179388159Y-130287446D01*
X178487605Y-131188000D01*
X178128395Y-131188000D01*
X177227841Y-130287446D01*
X176971357Y-130373852D01*
X176761542Y-130947336D01*
X170182248Y-130947336D01*
X170176839Y-130818540D01*
X169992643Y-130373852D01*
X169736159Y-130287446D01*
X168835605Y-131188000D01*
X168476395Y-131188000D01*
X168462253Y-131173858D01*
X168641858Y-130994253D01*
X168656000Y-131008395D01*
X169556554Y-130107841D01*
X177407446Y-130107841D01*
X178308000Y-131008395D01*
X179208554Y-130107841D01*
X187059446Y-130107841D01*
X187960000Y-131008395D01*
X188860554Y-130107841D01*
X196711446Y-130107841D01*
X197612000Y-131008395D01*
X198512554Y-130107841D01*
X198426148Y-129851357D01*
X197852664Y-129641542D01*
X197242540Y-129667161D01*
X196797852Y-129851357D01*
X196711446Y-130107841D01*
X188860554Y-130107841D01*
X188774148Y-129851357D01*
X188200664Y-129641542D01*
X187590540Y-129667161D01*
X187145852Y-129851357D01*
X187059446Y-130107841D01*
X179208554Y-130107841D01*
X179122148Y-129851357D01*
X178548664Y-129641542D01*
X177938540Y-129667161D01*
X177493852Y-129851357D01*
X177407446Y-130107841D01*
X169556554Y-130107841D01*
X169470148Y-129851357D01*
X168896664Y-129641542D01*
X168422233Y-129661463D01*
X168447838Y-129599799D01*
X168448162Y-129227833D01*
X168314617Y-128904629D01*
X168447838Y-128583799D01*
X168448162Y-128211833D01*
X168306117Y-127868057D01*
X168043327Y-127604808D01*
X167699799Y-127462162D01*
X167327833Y-127461838D01*
X166984057Y-127603883D01*
X166950882Y-127637000D01*
X162487241Y-127637000D01*
X162328327Y-127477808D01*
X161984799Y-127335162D01*
X161612833Y-127334838D01*
X161269057Y-127476883D01*
X161005808Y-127739673D01*
X160863162Y-128083201D01*
X160862838Y-128455167D01*
X160944581Y-128653000D01*
X159893000Y-128653000D01*
X159674660Y-128696431D01*
X159602160Y-128710852D01*
X159355599Y-128875599D01*
X158435165Y-129796033D01*
X158486093Y-129540000D01*
X158373054Y-128971715D01*
X158051147Y-128489946D01*
X157721974Y-128270000D01*
X158051147Y-128050054D01*
X158373054Y-127568285D01*
X158486093Y-127000000D01*
X158441574Y-126776187D01*
X172808752Y-126776187D01*
X173026757Y-127303800D01*
X173430077Y-127707824D01*
X173957309Y-127926750D01*
X174528187Y-127927248D01*
X175055800Y-127709243D01*
X175265663Y-127499745D01*
X178415861Y-127499745D01*
X178489995Y-127745864D01*
X179027223Y-127938965D01*
X179597454Y-127911778D01*
X179998005Y-127745864D01*
X180072139Y-127499745D01*
X179244000Y-126671605D01*
X178415861Y-127499745D01*
X175265663Y-127499745D01*
X175459824Y-127305923D01*
X175678750Y-126778691D01*
X175679189Y-126275223D01*
X177797035Y-126275223D01*
X177824222Y-126845454D01*
X177990136Y-127246005D01*
X178236255Y-127320139D01*
X179064395Y-126492000D01*
X179423605Y-126492000D01*
X180251745Y-127320139D01*
X180497864Y-127246005D01*
X180623728Y-126895837D01*
X180603009Y-127000000D01*
X180735078Y-127663956D01*
X181111179Y-128226830D01*
X181674053Y-128602931D01*
X182338009Y-128735000D01*
X182405991Y-128735000D01*
X183069947Y-128602931D01*
X183632821Y-128226830D01*
X184008922Y-127663956D01*
X184140991Y-127000000D01*
X184008922Y-126336044D01*
X183632821Y-125773170D01*
X183448326Y-125649894D01*
X183691229Y-125549529D01*
X183691759Y-125549000D01*
X193443288Y-125549000D01*
X193375569Y-125648110D01*
X193324560Y-125900000D01*
X193324560Y-128100000D01*
X193368838Y-128335317D01*
X193507910Y-128551441D01*
X193720110Y-128696431D01*
X193972000Y-128747440D01*
X196172000Y-128747440D01*
X196407317Y-128703162D01*
X196623441Y-128564090D01*
X196768431Y-128351890D01*
X196819440Y-128100000D01*
X196819440Y-126019032D01*
X197644548Y-126741001D01*
X197717845Y-127109491D01*
X198050591Y-127607481D01*
X198548581Y-127940227D01*
X199136000Y-128057072D01*
X199723419Y-127940227D01*
X200221409Y-127607481D01*
X200554155Y-127109491D01*
X200671000Y-126522072D01*
X200671000Y-126461928D01*
X200554155Y-125874509D01*
X200221409Y-125376519D01*
X199983418Y-125217499D01*
X200373966Y-124859576D01*
X200627046Y-124316742D01*
X200506997Y-124079000D01*
X199263000Y-124079000D01*
X199263000Y-124099000D01*
X199009000Y-124099000D01*
X199009000Y-124079000D01*
X198989000Y-124079000D01*
X198989000Y-123825000D01*
X199009000Y-123825000D01*
X199009000Y-123805000D01*
X199263000Y-123805000D01*
X199263000Y-123825000D01*
X200506997Y-123825000D01*
X200627046Y-123587258D01*
X200373966Y-123044424D01*
X200239462Y-122921156D01*
X200271317Y-122915162D01*
X200487441Y-122776090D01*
X200632431Y-122563890D01*
X200683440Y-122312000D01*
X200683440Y-120512000D01*
X200639162Y-120276683D01*
X200500090Y-120060559D01*
X200287890Y-119915569D01*
X200036000Y-119864560D01*
X198236000Y-119864560D01*
X198000683Y-119908838D01*
X197784559Y-120047910D01*
X197639569Y-120260110D01*
X197588560Y-120512000D01*
X197588560Y-122312000D01*
X197632838Y-122547317D01*
X197771910Y-122763441D01*
X197984110Y-122908431D01*
X198035146Y-122918766D01*
X197898034Y-123044424D01*
X197880696Y-123081613D01*
X197789686Y-122990445D01*
X197427788Y-122840172D01*
X197035931Y-122839830D01*
X196673771Y-122989471D01*
X196673241Y-122990000D01*
X196601824Y-122990000D01*
X196623441Y-122976090D01*
X196768431Y-122763890D01*
X196819440Y-122512000D01*
X196819440Y-120739362D01*
X198767680Y-118791122D01*
X198813167Y-118791162D01*
X199156943Y-118649117D01*
X199420192Y-118386327D01*
X199562838Y-118042799D01*
X199563162Y-117670833D01*
X199421117Y-117327057D01*
X199158327Y-117063808D01*
X198814799Y-116921162D01*
X198442833Y-116920838D01*
X198099057Y-117062883D01*
X197835808Y-117325673D01*
X197693162Y-117669201D01*
X197693121Y-117716077D01*
X195744638Y-119664560D01*
X193972000Y-119664560D01*
X193736683Y-119708838D01*
X193520559Y-119847910D01*
X193375569Y-120060110D01*
X193324560Y-120312000D01*
X193324560Y-122512000D01*
X193368838Y-122747317D01*
X193507910Y-122963441D01*
X193720110Y-123108431D01*
X193859356Y-123136629D01*
X193729445Y-123266314D01*
X193579172Y-123628212D01*
X193578953Y-123879000D01*
X183691614Y-123879000D01*
X183330788Y-123729172D01*
X182938931Y-123728830D01*
X182576771Y-123878471D01*
X182299445Y-124155314D01*
X182149172Y-124517212D01*
X182148830Y-124909069D01*
X182298471Y-125271229D01*
X182299833Y-125272594D01*
X181674053Y-125397069D01*
X181111179Y-125773170D01*
X180735078Y-126336044D01*
X180685159Y-126587003D01*
X180663778Y-126138546D01*
X180497864Y-125737995D01*
X180251745Y-125663861D01*
X179423605Y-126492000D01*
X179064395Y-126492000D01*
X178236255Y-125663861D01*
X177990136Y-125737995D01*
X177797035Y-126275223D01*
X175679189Y-126275223D01*
X175679248Y-126207813D01*
X175461243Y-125680200D01*
X175265640Y-125484255D01*
X178415861Y-125484255D01*
X179244000Y-126312395D01*
X180072139Y-125484255D01*
X179998005Y-125238136D01*
X179460777Y-125045035D01*
X178890546Y-125072222D01*
X178489995Y-125238136D01*
X178415861Y-125484255D01*
X175265640Y-125484255D01*
X175057923Y-125276176D01*
X174530691Y-125057250D01*
X173959813Y-125056752D01*
X173432200Y-125274757D01*
X173028176Y-125678077D01*
X172809250Y-126205309D01*
X172808752Y-126776187D01*
X158441574Y-126776187D01*
X158373054Y-126431715D01*
X158051147Y-125949946D01*
X157721974Y-125730000D01*
X158051147Y-125510054D01*
X158373054Y-125028285D01*
X158486093Y-124460000D01*
X158373054Y-123891715D01*
X158051147Y-123409946D01*
X157721974Y-123190000D01*
X158051147Y-122970054D01*
X158373054Y-122488285D01*
X158486093Y-121920000D01*
X158373054Y-121351715D01*
X158051147Y-120869946D01*
X157721974Y-120650000D01*
X158051147Y-120430054D01*
X158373054Y-119948285D01*
X158486093Y-119380000D01*
X158373054Y-118811715D01*
X158051147Y-118329946D01*
X157721974Y-118110000D01*
X157810170Y-118051069D01*
X161066830Y-118051069D01*
X161216471Y-118413229D01*
X161217000Y-118413759D01*
X161217000Y-122632386D01*
X161067172Y-122993212D01*
X161066830Y-123385069D01*
X161216471Y-123747229D01*
X161493314Y-124024555D01*
X161855212Y-124174828D01*
X162247069Y-124175170D01*
X162264421Y-124168000D01*
X167208560Y-124168000D01*
X167208560Y-125768000D01*
X167252838Y-126003317D01*
X167391910Y-126219441D01*
X167604110Y-126364431D01*
X167856000Y-126415440D01*
X169456000Y-126415440D01*
X169691317Y-126371162D01*
X169907441Y-126232090D01*
X169911977Y-126225452D01*
X170439223Y-126414965D01*
X171009454Y-126387778D01*
X171410005Y-126221864D01*
X171484139Y-125975745D01*
X170656000Y-125147605D01*
X170641858Y-125161748D01*
X170462253Y-124982143D01*
X170476395Y-124968000D01*
X170835605Y-124968000D01*
X171663745Y-125796139D01*
X171909864Y-125722005D01*
X172102965Y-125184777D01*
X172075778Y-124614546D01*
X171909864Y-124213995D01*
X171663745Y-124139861D01*
X170835605Y-124968000D01*
X170476395Y-124968000D01*
X170462253Y-124953858D01*
X170641858Y-124774252D01*
X170656000Y-124788395D01*
X171484139Y-123960255D01*
X171410005Y-123714136D01*
X170872777Y-123521035D01*
X170302546Y-123548222D01*
X169911053Y-123710384D01*
X169707890Y-123571569D01*
X169456000Y-123520560D01*
X167856000Y-123520560D01*
X167620683Y-123564838D01*
X167404559Y-123703910D01*
X167259569Y-123916110D01*
X167208560Y-124168000D01*
X162264421Y-124168000D01*
X162609229Y-124025529D01*
X162886555Y-123748686D01*
X163036828Y-123386788D01*
X163037170Y-122994931D01*
X162887529Y-122632771D01*
X162887000Y-122632241D01*
X162887000Y-122181977D01*
X163069302Y-122454811D01*
X163534849Y-122765880D01*
X164084000Y-122875113D01*
X164633151Y-122765880D01*
X164846882Y-122623069D01*
X170591830Y-122623069D01*
X170741471Y-122985229D01*
X171018314Y-123262555D01*
X171380212Y-123412828D01*
X171380960Y-123412829D01*
X171494565Y-123526434D01*
X171630012Y-123616936D01*
X171765459Y-123707439D01*
X172085000Y-123771000D01*
X173940386Y-123771000D01*
X174301212Y-123920828D01*
X174693069Y-123921170D01*
X175055229Y-123771529D01*
X175332555Y-123494686D01*
X175482828Y-123132788D01*
X175483170Y-122740931D01*
X175333529Y-122378771D01*
X175056686Y-122101445D01*
X175019633Y-122086059D01*
X175072139Y-121911745D01*
X174244000Y-121083605D01*
X173415861Y-121911745D01*
X173472867Y-122101000D01*
X172507657Y-122101000D01*
X172412529Y-121870771D01*
X172135686Y-121593445D01*
X171773788Y-121443172D01*
X171381931Y-121442830D01*
X171019771Y-121592471D01*
X170742445Y-121869314D01*
X170592172Y-122231212D01*
X170591830Y-122623069D01*
X164846882Y-122623069D01*
X165098698Y-122454811D01*
X165409767Y-121989264D01*
X165519000Y-121440113D01*
X165519000Y-121383887D01*
X165409767Y-120834736D01*
X165311202Y-120687223D01*
X172797035Y-120687223D01*
X172824222Y-121257454D01*
X172990136Y-121658005D01*
X173236255Y-121732139D01*
X174064395Y-120904000D01*
X174423605Y-120904000D01*
X175251745Y-121732139D01*
X175497864Y-121658005D01*
X175666735Y-121188187D01*
X177808752Y-121188187D01*
X178026757Y-121715800D01*
X178430077Y-122119824D01*
X178957309Y-122338750D01*
X179528187Y-122339248D01*
X180055800Y-122121243D01*
X180459824Y-121717923D01*
X180617863Y-121337322D01*
X180603009Y-121412000D01*
X180735078Y-122075956D01*
X181111179Y-122638830D01*
X181674053Y-123014931D01*
X182338009Y-123147000D01*
X182405991Y-123147000D01*
X183069947Y-123014931D01*
X183632821Y-122638830D01*
X184008922Y-122075956D01*
X184140991Y-121412000D01*
X184008922Y-120748044D01*
X183632821Y-120185170D01*
X183069947Y-119809069D01*
X182405991Y-119677000D01*
X182338009Y-119677000D01*
X181674053Y-119809069D01*
X181111179Y-120185170D01*
X180735078Y-120748044D01*
X180678890Y-121030522D01*
X180679248Y-120619813D01*
X180461243Y-120092200D01*
X180057923Y-119688176D01*
X179530691Y-119469250D01*
X178959813Y-119468752D01*
X178432200Y-119686757D01*
X178028176Y-120090077D01*
X177809250Y-120617309D01*
X177808752Y-121188187D01*
X175666735Y-121188187D01*
X175690965Y-121120777D01*
X175663778Y-120550546D01*
X175497864Y-120149995D01*
X175251745Y-120075861D01*
X174423605Y-120904000D01*
X174064395Y-120904000D01*
X173236255Y-120075861D01*
X172990136Y-120149995D01*
X172797035Y-120687223D01*
X165311202Y-120687223D01*
X165098698Y-120369189D01*
X164762290Y-120144408D01*
X164895800Y-120089243D01*
X165089124Y-119896255D01*
X173415861Y-119896255D01*
X174244000Y-120724395D01*
X175072139Y-119896255D01*
X174998005Y-119650136D01*
X174460777Y-119457035D01*
X173890546Y-119484222D01*
X173489995Y-119650136D01*
X173415861Y-119896255D01*
X165089124Y-119896255D01*
X165299824Y-119685923D01*
X165518750Y-119158691D01*
X165519248Y-118587813D01*
X165301243Y-118060200D01*
X164897923Y-117656176D01*
X164370691Y-117437250D01*
X163799813Y-117436752D01*
X163272200Y-117654757D01*
X163036970Y-117889577D01*
X163037170Y-117660931D01*
X162887529Y-117298771D01*
X162610686Y-117021445D01*
X162248788Y-116871172D01*
X161856931Y-116870830D01*
X161494771Y-117020471D01*
X161217445Y-117297314D01*
X161067172Y-117659212D01*
X161066830Y-118051069D01*
X157810170Y-118051069D01*
X158051147Y-117890054D01*
X158373054Y-117408285D01*
X158486093Y-116840000D01*
X158428011Y-116548000D01*
X167208560Y-116548000D01*
X167208560Y-118148000D01*
X167252838Y-118383317D01*
X167391910Y-118599441D01*
X167604110Y-118744431D01*
X167856000Y-118795440D01*
X169456000Y-118795440D01*
X169691317Y-118751162D01*
X169907441Y-118612090D01*
X169911977Y-118605452D01*
X170439223Y-118794965D01*
X171009454Y-118767778D01*
X171410005Y-118601864D01*
X171484139Y-118355745D01*
X170656000Y-117527605D01*
X170641858Y-117541748D01*
X170462253Y-117362143D01*
X170476395Y-117348000D01*
X170835605Y-117348000D01*
X171663745Y-118176139D01*
X171909864Y-118102005D01*
X172102965Y-117564777D01*
X172075778Y-116994546D01*
X171909864Y-116593995D01*
X171663745Y-116519861D01*
X170835605Y-117348000D01*
X170476395Y-117348000D01*
X170462253Y-117333858D01*
X170641858Y-117154252D01*
X170656000Y-117168395D01*
X171484139Y-116340255D01*
X171410005Y-116094136D01*
X170872777Y-115901035D01*
X170302546Y-115928222D01*
X169911053Y-116090384D01*
X169707890Y-115951569D01*
X169456000Y-115900560D01*
X167856000Y-115900560D01*
X167620683Y-115944838D01*
X167404559Y-116083910D01*
X167259569Y-116296110D01*
X167208560Y-116548000D01*
X158428011Y-116548000D01*
X158373054Y-116271715D01*
X158051147Y-115789946D01*
X157721974Y-115570000D01*
X158051147Y-115350054D01*
X158373054Y-114868285D01*
X158486093Y-114300000D01*
X158373054Y-113731715D01*
X158051147Y-113249946D01*
X157721974Y-113030000D01*
X158051147Y-112810054D01*
X158373054Y-112328285D01*
X158486093Y-111760000D01*
X158385046Y-111252000D01*
X177288041Y-111252000D01*
X177402115Y-111825489D01*
X177726971Y-112311670D01*
X178041752Y-112522000D01*
X177726971Y-112732330D01*
X177402115Y-113218511D01*
X177288041Y-113792000D01*
X177402115Y-114365489D01*
X177726971Y-114851670D01*
X178213152Y-115176526D01*
X178786641Y-115290600D01*
X178845359Y-115290600D01*
X179418848Y-115176526D01*
X179905029Y-114851670D01*
X180086000Y-114580828D01*
X180266971Y-114851670D01*
X180753152Y-115176526D01*
X181326641Y-115290600D01*
X181385359Y-115290600D01*
X181958848Y-115176526D01*
X182445029Y-114851670D01*
X182626000Y-114580828D01*
X182806971Y-114851670D01*
X183293152Y-115176526D01*
X183866641Y-115290600D01*
X183925359Y-115290600D01*
X184498848Y-115176526D01*
X184985029Y-114851670D01*
X185166000Y-114580828D01*
X185346971Y-114851670D01*
X185833152Y-115176526D01*
X186406641Y-115290600D01*
X186465359Y-115290600D01*
X187038848Y-115176526D01*
X187525029Y-114851670D01*
X187705992Y-114580839D01*
X188087510Y-114998821D01*
X188616973Y-115246968D01*
X188849000Y-115126469D01*
X188849000Y-113919000D01*
X189103000Y-113919000D01*
X189103000Y-115126469D01*
X189335027Y-115246968D01*
X189864490Y-114998821D01*
X190246000Y-114580848D01*
X190627510Y-114998821D01*
X191156973Y-115246968D01*
X191389000Y-115126469D01*
X191389000Y-113919000D01*
X191643000Y-113919000D01*
X191643000Y-115126469D01*
X191875027Y-115246968D01*
X192404490Y-114998821D01*
X192786000Y-114580848D01*
X193167510Y-114998821D01*
X193696973Y-115246968D01*
X193929000Y-115126469D01*
X193929000Y-113919000D01*
X191643000Y-113919000D01*
X191389000Y-113919000D01*
X189103000Y-113919000D01*
X188849000Y-113919000D01*
X188829000Y-113919000D01*
X188829000Y-113665000D01*
X188849000Y-113665000D01*
X188849000Y-111379000D01*
X189103000Y-111379000D01*
X189103000Y-113665000D01*
X191389000Y-113665000D01*
X191389000Y-111379000D01*
X191643000Y-111379000D01*
X191643000Y-113665000D01*
X193929000Y-113665000D01*
X193929000Y-111379000D01*
X191643000Y-111379000D01*
X191389000Y-111379000D01*
X189103000Y-111379000D01*
X188849000Y-111379000D01*
X188829000Y-111379000D01*
X188829000Y-111125000D01*
X188849000Y-111125000D01*
X188849000Y-109917531D01*
X189103000Y-109917531D01*
X189103000Y-111125000D01*
X191389000Y-111125000D01*
X191389000Y-109917531D01*
X191643000Y-109917531D01*
X191643000Y-111125000D01*
X193929000Y-111125000D01*
X193929000Y-109917531D01*
X194183000Y-109917531D01*
X194183000Y-111125000D01*
X194203000Y-111125000D01*
X194203000Y-111379000D01*
X194183000Y-111379000D01*
X194183000Y-113665000D01*
X194203000Y-113665000D01*
X194203000Y-113919000D01*
X194183000Y-113919000D01*
X194183000Y-115126469D01*
X194415027Y-115246968D01*
X194944490Y-114998821D01*
X195326008Y-114580839D01*
X195506971Y-114851670D01*
X195993152Y-115176526D01*
X196566641Y-115290600D01*
X196625359Y-115290600D01*
X197198848Y-115176526D01*
X197685029Y-114851670D01*
X198009885Y-114365489D01*
X198123959Y-113792000D01*
X198009885Y-113218511D01*
X197685029Y-112732330D01*
X197671358Y-112723195D01*
X197694917Y-112718762D01*
X197911041Y-112579690D01*
X198056031Y-112367490D01*
X198107040Y-112115600D01*
X198107040Y-110388400D01*
X198062762Y-110153083D01*
X197923690Y-109936959D01*
X197711490Y-109791969D01*
X197459600Y-109740960D01*
X195732400Y-109740960D01*
X195497083Y-109785238D01*
X195280959Y-109924310D01*
X195135969Y-110136510D01*
X195116338Y-110233451D01*
X194944490Y-110045179D01*
X194415027Y-109797032D01*
X194183000Y-109917531D01*
X193929000Y-109917531D01*
X193696973Y-109797032D01*
X193167510Y-110045179D01*
X192786000Y-110463152D01*
X192404490Y-110045179D01*
X191875027Y-109797032D01*
X191643000Y-109917531D01*
X191389000Y-109917531D01*
X191156973Y-109797032D01*
X190627510Y-110045179D01*
X190246000Y-110463152D01*
X189864490Y-110045179D01*
X189335027Y-109797032D01*
X189103000Y-109917531D01*
X188849000Y-109917531D01*
X188616973Y-109797032D01*
X188087510Y-110045179D01*
X187705992Y-110463161D01*
X187525029Y-110192330D01*
X187038848Y-109867474D01*
X186465359Y-109753400D01*
X186406641Y-109753400D01*
X185833152Y-109867474D01*
X185346971Y-110192330D01*
X185166000Y-110463172D01*
X184985029Y-110192330D01*
X184498848Y-109867474D01*
X183925359Y-109753400D01*
X183866641Y-109753400D01*
X183293152Y-109867474D01*
X182806971Y-110192330D01*
X182626000Y-110463172D01*
X182445029Y-110192330D01*
X181958848Y-109867474D01*
X181385359Y-109753400D01*
X181326641Y-109753400D01*
X180753152Y-109867474D01*
X180266971Y-110192330D01*
X180086000Y-110463172D01*
X179905029Y-110192330D01*
X179418848Y-109867474D01*
X178845359Y-109753400D01*
X178786641Y-109753400D01*
X178213152Y-109867474D01*
X177726971Y-110192330D01*
X177402115Y-110678511D01*
X177288041Y-111252000D01*
X158385046Y-111252000D01*
X158373054Y-111191715D01*
X158051147Y-110709946D01*
X157710447Y-110482298D01*
X157853358Y-110415183D01*
X158243645Y-109986924D01*
X158413476Y-109576890D01*
X158292155Y-109347000D01*
X157099000Y-109347000D01*
X157099000Y-109367000D01*
X156845000Y-109367000D01*
X156845000Y-109347000D01*
X156825000Y-109347000D01*
X156825000Y-109093000D01*
X156845000Y-109093000D01*
X156845000Y-109073000D01*
X157099000Y-109073000D01*
X157099000Y-109093000D01*
X158292155Y-109093000D01*
X158413476Y-108863110D01*
X158243645Y-108453076D01*
X158014831Y-108202000D01*
X162744853Y-108202000D01*
X162649000Y-108683887D01*
X162649000Y-108740113D01*
X162758233Y-109289264D01*
X163069302Y-109754811D01*
X163534849Y-110065880D01*
X164084000Y-110175113D01*
X164633151Y-110065880D01*
X165098698Y-109754811D01*
X165409767Y-109289264D01*
X165519000Y-108740113D01*
X165519000Y-108683887D01*
X165423147Y-108202000D01*
X168116441Y-108202000D01*
X168487000Y-108526239D01*
X168624883Y-108859943D01*
X168887673Y-109123192D01*
X169231201Y-109265838D01*
X169603167Y-109266162D01*
X169946943Y-109124117D01*
X170210192Y-108861327D01*
X170352838Y-108517799D01*
X170353162Y-108145833D01*
X170211117Y-107802057D01*
X169948327Y-107538808D01*
X169604799Y-107396162D01*
X169503643Y-107396074D01*
X169496702Y-107390000D01*
X202342091Y-107390000D01*
X202490000Y-107538305D01*
M02*
