M48
;DRILL file {KiCad 4.0.6} date 2017 August 25, Friday 18:11:13
;FORMAT={-:-/ absolute / metric / decimal}
FMAT,2
METRIC,TZ
T1C0.400
T2C0.500
T3C0.800
T4C1.000
T5C1.016
T6C1.100
T7C1.600
%
G90
G05
M71
T1
X158.369Y-130.937
X161.798Y-128.27
X162.306Y-136.398
X163.703Y-139.192
X163.957Y-134.747
X165.989Y-136.906
X167.513Y-128.397
X167.513Y-129.413
X169.418Y-108.331
X198.628Y-117.856
T2
X162.052Y-117.856
X162.052Y-123.19
X171.577Y-122.428
X174.498Y-122.936
X183.134Y-124.714
X194.564Y-123.825
X197.231Y-123.825
T3
X164.084Y-108.712
X164.084Y-118.872
X164.084Y-121.412
X164.084Y-131.572
X168.656Y-117.348
X168.656Y-124.968
X170.656Y-117.348
X170.656Y-124.968
X174.244Y-120.904
X174.244Y-126.492
X179.244Y-120.904
X179.244Y-126.492
T4
X156.972Y-109.22
X156.972Y-111.76
X156.972Y-114.3
X156.972Y-116.84
X156.972Y-119.38
X156.972Y-121.92
X156.972Y-124.46
X156.972Y-127.
X156.972Y-129.54
X156.972Y-132.08
X156.972Y-134.62
X156.972Y-137.16
X156.972Y-139.7
X156.972Y-142.24
X199.136Y-121.412
X199.136Y-123.952
X199.136Y-126.492
T5
X178.816Y-111.252
X178.816Y-113.792
X181.356Y-111.252
X181.356Y-113.792
X183.896Y-111.252
X183.896Y-113.792
X186.436Y-111.252
X186.436Y-113.792
X188.976Y-111.252
X188.976Y-113.792
X191.516Y-111.252
X191.516Y-113.792
X194.056Y-111.252
X194.056Y-113.792
X196.596Y-111.252
X196.596Y-113.792
T6
X182.372Y-121.412
X182.372Y-127.
X195.072Y-121.412
X195.072Y-127.
T7
X168.656Y-131.188
X168.656Y-134.288
X168.656Y-142.588
X178.308Y-131.188
X178.308Y-134.288
X178.308Y-142.588
X187.96Y-131.188
X187.96Y-134.288
X187.96Y-142.588
X197.612Y-131.188
X197.612Y-134.288
X197.612Y-142.588
T0
M30
